<svg xmlns="http://www.w3.org/2000/svg" xmlns:xlink="http://www.w3.org/1999/xlink" width="1920" zoomAndPan="magnify" viewBox="0 0 1440 809.999993" height="1080" preserveAspectRatio="xMidYMid meet" version="1.0"><defs><g/><clipPath id="b46c0006db"><path d="M 616 53.359375 L 722 53.359375 L 722 159 L 616 159 Z M 616 53.359375 " clip-rule="nonzero"/></clipPath><clipPath id="cc5011a47d"><path d="M 719 446 L 777 446 L 777 467.679688 L 719 467.679688 Z M 719 446 " clip-rule="nonzero"/></clipPath><clipPath id="51c867c753"><path d="M 674 132 L 966.59375 132 L 966.59375 467.679688 L 674 467.679688 Z M 674 132 " clip-rule="nonzero"/></clipPath></defs><rect x="-144" width="1728" fill="#ffffff" y="-80.999999" height="971.999992" fill-opacity="1"/><path fill="#000000" d="M 592.90625 452.648438 C 592.90625 459.941406 598.816406 465.851562 606.109375 465.851562 C 613.402344 465.851562 619.3125 459.941406 619.3125 452.648438 C 619.3125 447.449219 616.300781 442.96875 611.933594 440.8125 L 611.933594 432.230469 L 543.777344 411.265625 L 543.777344 362.210938 L 553.683594 362.210938 L 553.683594 358.089844 C 568.644531 357.101562 581.992188 354.738281 592.324219 351.4375 L 531.433594 343.492188 C 522.300781 342.300781 514.175781 337.625 508.558594 330.324219 C 507.382812 328.792969 506.347656 327.183594 505.453125 325.515625 C 491.574219 326.285156 479.457031 327.578125 471.507812 329.398438 L 445.382812 259.835938 C 456.523438 277.214844 468.003906 287.066406 475.734375 284.164062 C 488.140625 279.507812 434.492188 136.640625 422.082031 141.300781 C 411.96875 145.097656 411.394531 169.558594 419.550781 199.835938 C 418.628906 199.710938 417.671875 199.78125 416.742188 200.128906 C 413.730469 201.261719 412.203125 204.621094 413.335938 207.628906 L 461.933594 337.046875 C 462.070312 337.402344 462.242188 337.726562 462.433594 338.039062 C 466.992188 348.035156 491.121094 356.039062 522.226562 358.089844 L 522.226562 362.214844 L 532.128906 362.214844 L 532.128906 411.265625 L 463.972656 432.230469 L 463.972656 440.816406 C 459.605469 442.96875 456.59375 447.453125 456.59375 452.648438 C 456.59375 459.941406 462.507812 465.851562 469.796875 465.851562 C 477.089844 465.851562 483.003906 459.941406 483.003906 452.648438 C 483.003906 447.460938 480.003906 442.988281 475.652344 440.828125 L 532.128906 423.453125 L 532.128906 440.816406 C 527.761719 442.96875 524.75 447.453125 524.75 452.648438 C 524.75 459.941406 530.660156 465.851562 537.953125 465.851562 C 545.246094 465.851562 551.15625 459.941406 551.15625 452.648438 C 551.15625 447.449219 548.144531 442.96875 543.777344 440.8125 L 543.777344 423.453125 L 600.253906 440.828125 C 595.902344 442.988281 592.90625 447.460938 592.90625 452.648438 Z M 592.90625 452.648438 " fill-opacity="1" fill-rule="nonzero"/><g clip-path="url(#b46c0006db)"><path fill="#000000" d="M 721.605469 105.816406 C 721.605469 107.535156 721.523438 109.246094 721.355469 110.957031 C 721.1875 112.664062 720.933594 114.359375 720.597656 116.046875 C 720.265625 117.730469 719.847656 119.390625 719.347656 121.035156 C 718.851562 122.679688 718.273438 124.292969 717.617188 125.878906 C 716.957031 127.464844 716.226562 129.015625 715.414062 130.53125 C 714.605469 132.042969 713.726562 133.515625 712.769531 134.941406 C 711.816406 136.371094 710.796875 137.746094 709.707031 139.074219 C 708.617188 140.402344 707.464844 141.671875 706.25 142.886719 C 705.035156 144.101562 703.765625 145.25 702.4375 146.339844 C 701.109375 147.429688 699.734375 148.453125 698.304688 149.40625 C 696.878906 150.359375 695.40625 151.242188 693.894531 152.050781 C 692.378906 152.859375 690.828125 153.59375 689.242188 154.25 C 687.65625 154.90625 686.042969 155.484375 684.398438 155.984375 C 682.753906 156.480469 681.089844 156.898438 679.40625 157.234375 C 677.722656 157.566406 676.027344 157.820312 674.316406 157.988281 C 672.609375 158.15625 670.894531 158.238281 669.179688 158.238281 C 667.460938 158.238281 665.75 158.15625 664.039062 157.988281 C 662.332031 157.820312 660.636719 157.566406 658.949219 157.234375 C 657.265625 156.898438 655.601562 156.480469 653.960938 155.984375 C 652.316406 155.484375 650.703125 154.90625 649.117188 154.25 C 647.53125 153.59375 645.980469 152.859375 644.464844 152.050781 C 642.949219 151.242188 641.480469 150.359375 640.050781 149.40625 C 638.625 148.453125 637.246094 147.429688 635.917969 146.339844 C 634.59375 145.25 633.320312 144.101562 632.109375 142.886719 C 630.894531 141.671875 629.742188 140.402344 628.652344 139.074219 C 627.5625 137.746094 626.542969 136.371094 625.585938 134.941406 C 624.632812 133.515625 623.753906 132.042969 622.941406 130.53125 C 622.132812 129.015625 621.398438 127.464844 620.742188 125.878906 C 620.085938 124.292969 619.507812 122.679688 619.007812 121.035156 C 618.511719 119.390625 618.09375 117.730469 617.757812 116.046875 C 617.425781 114.359375 617.171875 112.664062 617.003906 110.957031 C 616.835938 109.246094 616.753906 107.535156 616.753906 105.816406 C 616.753906 104.101562 616.835938 102.386719 617.003906 100.679688 C 617.171875 98.972656 617.425781 97.273438 617.757812 95.589844 C 618.09375 93.90625 618.511719 92.242188 619.007812 90.601562 C 619.507812 88.957031 620.085938 87.34375 620.742188 85.757812 C 621.398438 84.171875 622.132812 82.621094 622.941406 81.105469 C 623.753906 79.59375 624.632812 78.121094 625.585938 76.695312 C 626.542969 75.265625 627.5625 73.890625 628.652344 72.5625 C 629.742188 71.234375 630.894531 69.964844 632.109375 68.75 C 633.320312 67.535156 634.59375 66.386719 635.917969 65.296875 C 637.246094 64.207031 638.625 63.183594 640.050781 62.230469 C 641.480469 61.277344 642.949219 60.394531 644.464844 59.585938 C 645.980469 58.777344 647.53125 58.042969 649.117188 57.386719 C 650.703125 56.730469 652.316406 56.152344 653.960938 55.652344 C 655.601562 55.15625 657.265625 54.738281 658.949219 54.402344 C 660.636719 54.070312 662.332031 53.816406 664.039062 53.648438 C 665.75 53.480469 667.460938 53.398438 669.179688 53.398438 C 670.894531 53.398438 672.609375 53.480469 674.316406 53.648438 C 676.027344 53.816406 677.722656 54.070312 679.40625 54.402344 C 681.089844 54.738281 682.753906 55.15625 684.398438 55.652344 C 686.042969 56.152344 687.65625 56.730469 689.242188 57.386719 C 690.828125 58.042969 692.378906 58.777344 693.894531 59.585938 C 695.40625 60.394531 696.878906 61.277344 698.304688 62.230469 C 699.734375 63.183594 701.109375 64.207031 702.4375 65.296875 C 703.765625 66.386719 705.035156 67.535156 706.25 68.75 C 707.464844 69.964844 708.617188 71.234375 709.707031 72.5625 C 710.796875 73.890625 711.816406 75.265625 712.769531 76.695312 C 713.726562 78.121094 714.605469 79.59375 715.414062 81.105469 C 716.226562 82.621094 716.957031 84.171875 717.617188 85.757812 C 718.273438 87.34375 718.851562 88.957031 719.347656 90.601562 C 719.847656 92.242188 720.265625 93.90625 720.597656 95.589844 C 720.933594 97.273438 721.1875 98.972656 721.355469 100.679688 C 721.523438 102.386719 721.605469 104.101562 721.605469 105.816406 Z M 721.605469 105.816406 " fill-opacity="1" fill-rule="nonzero"/></g><g clip-path="url(#cc5011a47d)"><path fill="#000000" d="M 748.066406 467.316406 C 753.808594 467.316406 759.609375 465.621094 764.675781 462.097656 C 770.394531 458.117188 774.238281 452.457031 776.023438 446.246094 L 719.199219 446.246094 L 719.199219 447.734375 L 724.132812 454.824219 C 729.792969 462.957031 738.855469 467.316406 748.066406 467.316406 Z M 748.066406 467.316406 " fill-opacity="1" fill-rule="nonzero"/></g><path fill="#000000" d="M 532.128906 338.179688 L 654.023438 354.082031 L 690.070312 405.878906 L 690.070312 305.269531 C 685.71875 301.34375 680.257812 298.765625 674.339844 297.996094 L 583.570312 286.152344 L 572.449219 284.699219 C 561.699219 256.34375 562.601562 233.488281 575.164062 214.96875 C 576.710938 212.691406 578.367188 210.609375 580.058594 208.679688 L 562.453125 182.613281 C 555.046875 171.652344 557.945312 156.703125 568.90625 149.296875 C 572.890625 146.605469 577.527344 145.183594 582.324219 145.183594 C 590.320312 145.183594 597.761719 149.132812 602.230469 155.753906 L 645.671875 220.0625 L 713.425781 190.484375 C 716.472656 189.152344 719.703125 188.476562 723.027344 188.476562 C 728.5 188.476562 733.855469 190.371094 738.113281 193.808594 L 750.8125 204.070312 C 752.683594 205.582031 754.257812 207.324219 755.546875 209.214844 C 756.785156 208.296875 757.9375 207.230469 758.949219 205.976562 C 765.417969 197.972656 764.175781 186.234375 756.167969 179.765625 L 743.46875 169.507812 C 738.027344 165.109375 730.582031 164.128906 724.191406 166.964844 L 656.183594 197.140625 L 615.914062 139.191406 C 615.03125 137.921875 614.007812 136.8125 612.898438 135.835938 C 604.285156 126.898438 591.132812 122.820312 578.421875 126.125 C 524.226562 140.207031 502.074219 170.394531 493.03125 193.234375 C 474.570312 239.855469 495.449219 290.003906 506.910156 311.972656 C 507.164062 314.777344 507.816406 317.488281 508.828125 320.035156 C 512.605469 329.535156 521.269531 336.761719 532.128906 338.179688 Z M 532.128906 338.179688 " fill-opacity="1" fill-rule="nonzero"/><g clip-path="url(#51c867c753)"><path fill="#000000" d="M 735.71875 246.734375 C 730.253906 246.734375 724.902344 244.839844 720.644531 241.402344 L 719.28125 240.296875 L 674.246094 259.957031 L 684.441406 259.957031 L 684.441406 280.539062 L 697.0625 280.539062 L 697.0625 467.613281 L 712.207031 467.613281 L 712.207031 439.257812 L 921.746094 439.257812 L 921.746094 467.613281 L 936.890625 467.613281 L 936.890625 280.539062 L 949.511719 280.539062 L 949.511719 259.957031 L 966.597656 259.957031 L 966.597656 248.308594 L 798.5625 248.308594 C 800.820312 248.070312 802.851562 246.804688 803.964844 244.792969 L 805.882812 241.320312 L 862.023438 139.5625 L 849.78125 132.808594 L 793.714844 234.425781 L 756.660156 234.425781 C 756.007812 235.597656 755.269531 236.738281 754.398438 237.816406 C 749.816406 243.484375 743.007812 246.734375 735.71875 246.734375 Z M 735.71875 246.734375 " fill-opacity="1" fill-rule="nonzero"/></g><path fill="#000000" d="M 720.117188 234.085938 L 724.011719 237.234375 C 732.023438 243.703125 743.757812 242.457031 750.230469 234.449219 C 756.699219 226.445312 755.453125 214.707031 747.445312 208.238281 L 734.746094 197.976562 C 729.335938 193.609375 721.941406 192.609375 715.570312 195.394531 L 643.730469 226.761719 L 597.789062 158.75 C 592.027344 150.214844 580.433594 147.976562 571.90625 153.738281 C 563.378906 159.5 561.132812 171.085938 566.894531 179.613281 L 621.519531 260.484375 C 625.078125 265.75 630.933594 268.691406 636.972656 268.691406 C 639.476562 268.691406 642.011719 268.1875 644.425781 267.132812 Z M 720.117188 234.085938 " fill-opacity="1" fill-rule="nonzero"/><g fill="#ff3131" fill-opacity="1"><g transform="translate(421.993396, 651.415567)"><g><path d="M 52.8125 -103.859375 C 52.8125 -101.585938 52.097656 -99.613281 50.671875 -97.9375 C 49.242188 -96.257812 47.539062 -94.878906 45.5625 -93.796875 C 43.789062 -92.710938 41.96875 -91.550781 40.09375 -90.3125 C 38.21875 -89.082031 36.488281 -87.703125 34.90625 -86.171875 C 33.332031 -84.648438 32.050781 -82.953125 31.0625 -81.078125 C 30.082031 -79.203125 29.59375 -77.082031 29.59375 -74.71875 C 29.59375 -72.644531 30.082031 -70.769531 31.0625 -69.09375 C 32.050781 -67.414062 33.257812 -65.757812 34.6875 -64.125 C 36.125 -62.5 37.703125 -60.820312 39.421875 -59.09375 C 41.148438 -57.375 42.726562 -55.453125 44.15625 -53.328125 C 45.59375 -51.210938 46.800781 -48.820312 47.78125 -46.15625 C 48.769531 -43.5 49.265625 -40.394531 49.265625 -36.84375 C 49.265625 -34.375 48.742188 -31.582031 47.703125 -28.46875 C 46.671875 -25.363281 45.265625 -22.234375 43.484375 -19.078125 C 41.710938 -15.921875 39.617188 -12.863281 37.203125 -9.90625 C 34.785156 -6.945312 32.222656 -4.304688 29.515625 -1.984375 C 26.804688 0.328125 23.972656 2.195312 21.015625 3.625 C 18.054688 5.050781 15.191406 5.765625 12.421875 5.765625 C 9.367188 5.765625 6.65625 4.925781 4.28125 3.25 C 1.914062 1.570312 0.734375 -0.941406 0.734375 -4.296875 C 0.734375 -6.554688 1.273438 -8.648438 2.359375 -10.578125 C 3.453125 -12.503906 4.785156 -14.351562 6.359375 -16.125 C 7.941406 -17.90625 9.691406 -19.628906 11.609375 -21.296875 C 13.535156 -22.972656 15.285156 -24.648438 16.859375 -26.328125 C 18.441406 -28.003906 19.773438 -29.753906 20.859375 -31.578125 C 21.941406 -33.410156 22.484375 -35.363281 22.484375 -37.4375 C 22.484375 -40.289062 21.472656 -43.222656 19.453125 -46.234375 C 17.429688 -49.242188 15.1875 -52.347656 12.71875 -55.546875 C 10.257812 -58.753906 8.015625 -62.035156 5.984375 -65.390625 C 3.960938 -68.742188 2.953125 -72.148438 2.953125 -75.609375 C 2.953125 -79.847656 4.085938 -84.304688 6.359375 -88.984375 C 8.628906 -93.671875 11.539062 -97.960938 15.09375 -101.859375 C 18.644531 -105.753906 22.640625 -108.984375 27.078125 -111.546875 C 31.515625 -114.117188 35.90625 -115.40625 40.25 -115.40625 C 43.695312 -115.40625 46.648438 -114.367188 49.109375 -112.296875 C 51.578125 -110.222656 52.8125 -107.410156 52.8125 -103.859375 Z M 52.8125 -103.859375 "/></g></g><g transform="translate(475.55149, 651.415567)"><g><path d="M 32.109375 -89.65625 C 32.109375 -84.332031 31.882812 -78.984375 31.4375 -73.609375 C 31 -68.234375 30.78125 -62.832031 30.78125 -57.40625 C 30.78125 -50.40625 31 -43.398438 31.4375 -36.390625 C 31.882812 -29.390625 32.109375 -22.335938 32.109375 -15.234375 C 32.109375 -13.460938 32.007812 -11.46875 31.8125 -9.25 C 31.613281 -7.03125 31.144531 -4.984375 30.40625 -3.109375 C 29.664062 -1.234375 28.554688 0.34375 27.078125 1.625 C 25.597656 2.90625 23.625 3.546875 21.15625 3.546875 C 18.789062 3.546875 16.742188 2.382812 15.015625 0.0625 C 13.285156 -2.25 11.851562 -5.203125 10.71875 -8.796875 C 9.59375 -12.398438 8.660156 -16.421875 7.921875 -20.859375 C 7.179688 -25.296875 6.632812 -29.609375 6.28125 -33.796875 C 5.9375 -37.992188 5.691406 -41.84375 5.546875 -45.34375 C 5.398438 -48.84375 5.328125 -51.429688 5.328125 -53.109375 C 5.328125 -54.984375 5.398438 -57.695312 5.546875 -61.25 C 5.691406 -64.800781 6.007812 -68.644531 6.5 -72.78125 C 7 -76.925781 7.664062 -81.144531 8.5 -85.4375 C 9.34375 -89.726562 10.453125 -93.625 11.828125 -97.125 C 13.210938 -100.625 14.863281 -103.484375 16.78125 -105.703125 C 18.707031 -107.921875 21.003906 -109.03125 23.671875 -109.03125 C 25.835938 -109.03125 27.488281 -108.316406 28.625 -106.890625 C 29.757812 -105.460938 30.570312 -103.738281 31.0625 -101.71875 C 31.5625 -99.695312 31.859375 -97.578125 31.953125 -95.359375 C 32.054688 -93.140625 32.109375 -91.238281 32.109375 -89.65625 Z M 32.109375 -89.65625 "/></g></g><g transform="translate(514.46248, 651.415567)"><g><path d="M 32.546875 4.296875 C 27.515625 4.296875 23.125 2.960938 19.375 0.296875 C 15.632812 -2.367188 12.476562 -5.769531 9.90625 -9.90625 C 7.34375 -14.050781 5.421875 -18.660156 4.140625 -23.734375 C 2.859375 -28.816406 2.21875 -33.828125 2.21875 -38.765625 C 2.21875 -43.992188 2.859375 -49.394531 4.140625 -54.96875 C 5.421875 -60.539062 7.394531 -65.617188 10.0625 -70.203125 C 12.726562 -74.785156 16.128906 -78.53125 20.265625 -81.4375 C 24.410156 -84.351562 29.34375 -85.8125 35.0625 -85.8125 C 40.582031 -85.8125 45.289062 -84.304688 49.1875 -81.296875 C 53.082031 -78.285156 56.210938 -74.535156 58.578125 -70.046875 C 60.953125 -65.566406 62.628906 -60.660156 63.609375 -55.328125 C 64.597656 -50.003906 64.945312 -44.976562 64.65625 -40.25 C 64.351562 -35.019531 63.535156 -29.738281 62.203125 -24.40625 C 60.878906 -19.082031 58.929688 -14.300781 56.359375 -10.0625 C 53.796875 -5.820312 50.539062 -2.367188 46.59375 0.296875 C 42.65625 2.960938 37.972656 4.296875 32.546875 4.296875 Z M 34.03125 -62.578125 C 32.550781 -62.578125 31.242188 -61.785156 30.109375 -60.203125 C 28.972656 -58.628906 28.035156 -56.707031 27.296875 -54.4375 C 26.554688 -52.175781 25.988281 -49.785156 25.59375 -47.265625 C 25.195312 -44.753906 25 -42.5625 25 -40.6875 C 25 -38.320312 25.21875 -35.753906 25.65625 -32.984375 C 26.101562 -30.222656 26.722656 -27.679688 27.515625 -25.359375 C 28.304688 -23.046875 29.269531 -21.125 30.40625 -19.59375 C 31.539062 -18.070312 32.847656 -17.3125 34.328125 -17.3125 C 35.898438 -17.3125 37.253906 -18.050781 38.390625 -19.53125 C 39.523438 -21.007812 40.4375 -22.878906 41.125 -25.140625 C 41.820312 -27.410156 42.316406 -29.898438 42.609375 -32.609375 C 42.898438 -35.328125 43.046875 -37.875 43.046875 -40.25 C 43.046875 -42.414062 42.847656 -44.804688 42.453125 -47.421875 C 42.066406 -50.035156 41.503906 -52.472656 40.765625 -54.734375 C 40.023438 -57.003906 39.085938 -58.878906 37.953125 -60.359375 C 36.816406 -61.835938 35.507812 -62.578125 34.03125 -62.578125 Z M 34.03125 -62.578125 "/></g></g><g transform="translate(582.223825, 651.415567)"><g><path d="M 69.234375 -42.3125 C 69.234375 -36.882812 68.691406 -31.507812 67.609375 -26.1875 C 66.523438 -20.863281 64.703125 -16.101562 62.140625 -11.90625 C 59.578125 -7.71875 56.148438 -4.335938 51.859375 -1.765625 C 47.566406 0.796875 42.210938 2.078125 35.796875 2.078125 C 29.484375 2.078125 24.207031 0.820312 19.96875 -1.6875 C 15.726562 -4.207031 12.347656 -7.539062 9.828125 -11.6875 C 7.316406 -15.832031 5.539062 -20.515625 4.5 -25.734375 C 3.46875 -30.960938 2.953125 -36.289062 2.953125 -41.71875 C 2.953125 -47.632812 3.644531 -53.503906 5.03125 -59.328125 C 5.320312 -60.898438 5.882812 -63.09375 6.71875 -65.90625 C 7.5625 -68.71875 8.648438 -71.476562 9.984375 -74.1875 C 11.316406 -76.90625 12.84375 -79.25 14.5625 -81.21875 C 16.289062 -83.195312 18.191406 -84.1875 20.265625 -84.1875 C 22.242188 -84.1875 23.820312 -83.640625 25 -82.546875 C 26.1875 -81.460938 27.125 -80.109375 27.8125 -78.484375 C 28.5 -76.859375 28.941406 -75.132812 29.140625 -73.3125 C 29.335938 -71.488281 29.4375 -69.835938 29.4375 -68.359375 C 29.4375 -66.085938 29.265625 -63.863281 28.921875 -61.6875 C 28.578125 -59.519531 28.207031 -57.351562 27.8125 -55.1875 C 27.414062 -52.226562 27.046875 -49.269531 26.703125 -46.3125 C 26.359375 -43.351562 26.1875 -40.394531 26.1875 -37.4375 C 26.1875 -35.957031 26.257812 -34.300781 26.40625 -32.46875 C 26.550781 -30.644531 26.921875 -28.894531 27.515625 -27.21875 C 28.109375 -25.539062 28.945312 -24.132812 30.03125 -23 C 31.113281 -21.875 32.644531 -21.3125 34.625 -21.3125 C 37.1875 -21.3125 39.226562 -22 40.75 -23.375 C 42.28125 -24.757812 43.414062 -26.484375 44.15625 -28.546875 C 44.894531 -30.617188 45.363281 -32.835938 45.5625 -35.203125 C 45.757812 -37.578125 45.859375 -39.75 45.859375 -41.71875 C 45.859375 -46.0625 45.5625 -50.328125 44.96875 -54.515625 C 44.382812 -58.710938 43.84375 -62.976562 43.34375 -67.3125 C 43.25 -67.8125 43.203125 -68.503906 43.203125 -69.390625 C 43.203125 -70.867188 43.445312 -72.347656 43.9375 -73.828125 C 44.4375 -75.304688 45.128906 -76.632812 46.015625 -77.8125 C 46.898438 -79 47.984375 -79.960938 49.265625 -80.703125 C 50.546875 -81.441406 51.976562 -81.8125 53.5625 -81.8125 C 55.726562 -81.8125 57.648438 -81.046875 59.328125 -79.515625 C 61.003906 -77.992188 62.410156 -76.023438 63.546875 -73.609375 C 64.679688 -71.191406 65.617188 -68.476562 66.359375 -65.46875 C 67.097656 -62.457031 67.6875 -59.492188 68.125 -56.578125 C 68.570312 -53.671875 68.867188 -50.9375 69.015625 -48.375 C 69.160156 -45.8125 69.234375 -43.789062 69.234375 -42.3125 Z M 69.234375 -42.3125 "/></g></g><g transform="translate(656.051142, 651.415567)"><g><path d="M 59.328125 -56.8125 C 59.328125 -56.320312 59.273438 -55.804688 59.171875 -55.265625 C 59.078125 -54.722656 58.929688 -54.203125 58.734375 -53.703125 C 57.847656 -51.429688 56.46875 -49.53125 54.59375 -48 C 52.71875 -46.476562 50.5 -45.71875 47.9375 -45.71875 C 44.09375 -45.71875 41.476562 -47.640625 40.09375 -51.484375 C 39.894531 -51.972656 39.796875 -52.539062 39.796875 -53.1875 C 39.796875 -53.832031 39.75 -54.5 39.65625 -55.1875 L 39.65625 -59.46875 C 39.457031 -60.851562 39.109375 -61.941406 38.609375 -62.734375 C 38.117188 -63.523438 37.28125 -63.921875 36.09375 -63.921875 C 34.414062 -63.921875 32.8125 -62.859375 31.28125 -60.734375 C 29.757812 -58.609375 28.429688 -56.09375 27.296875 -53.1875 C 26.160156 -50.28125 25.25 -47.296875 24.5625 -44.234375 C 23.875 -41.179688 23.53125 -38.71875 23.53125 -36.84375 C 23.53125 -35.363281 23.625 -33.5625 23.8125 -31.4375 C 24.007812 -29.320312 24.40625 -27.273438 25 -25.296875 C 25.59375 -23.328125 26.40625 -21.625 27.4375 -20.1875 C 28.476562 -18.757812 29.835938 -18.046875 31.515625 -18.046875 C 33.191406 -18.046875 34.742188 -18.5625 36.171875 -19.59375 C 37.597656 -20.632812 39.003906 -21.847656 40.390625 -23.234375 C 41.671875 -24.410156 43.078125 -25.640625 44.609375 -26.921875 C 46.140625 -28.203125 47.890625 -28.84375 49.859375 -28.84375 C 52.328125 -28.84375 54.273438 -27.957031 55.703125 -26.1875 C 57.128906 -24.414062 57.84375 -22.394531 57.84375 -20.125 C 57.84375 -16.769531 56.953125 -13.632812 55.171875 -10.71875 C 53.398438 -7.8125 51.179688 -5.296875 48.515625 -3.171875 C 45.859375 -1.054688 42.898438 0.613281 39.640625 1.84375 C 36.390625 3.082031 33.285156 3.703125 30.328125 3.703125 C 25.003906 3.703125 20.492188 2.367188 16.796875 -0.296875 C 13.097656 -2.960938 10.113281 -6.34375 7.84375 -10.4375 C 5.570312 -14.53125 3.941406 -18.988281 2.953125 -23.8125 C 1.972656 -28.644531 1.484375 -33.234375 1.484375 -37.578125 C 1.484375 -42.609375 2.171875 -48.054688 3.546875 -53.921875 C 4.929688 -59.796875 7.050781 -65.25 9.90625 -70.28125 C 12.769531 -75.3125 16.445312 -79.5 20.9375 -82.84375 C 25.425781 -86.195312 30.773438 -87.875 36.984375 -87.875 C 40.828125 -87.875 44.15625 -87.035156 46.96875 -85.359375 C 49.78125 -83.691406 52.097656 -81.5 53.921875 -78.78125 C 55.753906 -76.070312 57.132812 -73.039062 58.0625 -69.6875 C 59 -66.332031 59.46875 -63.023438 59.46875 -59.765625 C 59.46875 -59.273438 59.46875 -58.78125 59.46875 -58.28125 C 59.46875 -57.789062 59.421875 -57.300781 59.328125 -56.8125 Z M 59.328125 -56.8125 "/></g></g><g transform="translate(719.22602, 651.415567)"><g><path d="M 71.609375 -38.3125 C 71.609375 -36.632812 71.582031 -34.144531 71.53125 -30.84375 C 71.476562 -27.539062 71.328125 -24.085938 71.078125 -20.484375 C 70.835938 -16.890625 70.519531 -13.488281 70.125 -10.28125 C 69.726562 -7.070312 69.238281 -4.726562 68.65625 -3.25 C 67.863281 -1.375 66.828125 0.25 65.546875 1.625 C 64.265625 3.007812 62.535156 3.703125 60.359375 3.703125 C 57.003906 3.703125 54.585938 2.367188 53.109375 -0.296875 C 51.628906 -2.960938 50.644531 -6.265625 50.15625 -10.203125 C 49.664062 -14.148438 49.46875 -18.441406 49.5625 -23.078125 C 49.664062 -27.710938 49.617188 -32.003906 49.421875 -35.953125 C 49.222656 -39.898438 48.675781 -43.203125 47.78125 -45.859375 C 46.894531 -48.523438 45.269531 -49.859375 42.90625 -49.859375 C 39.644531 -49.859375 37.148438 -49.335938 35.421875 -48.296875 C 33.703125 -47.265625 32.472656 -45.910156 31.734375 -44.234375 C 30.992188 -42.554688 30.550781 -40.632812 30.40625 -38.46875 C 30.257812 -36.300781 30.085938 -34.03125 29.890625 -31.65625 C 29.691406 -29.394531 29.539062 -26.335938 29.4375 -22.484375 C 29.34375 -18.640625 28.898438 -14.84375 28.109375 -11.09375 C 27.316406 -7.34375 26.007812 -4.113281 24.1875 -1.40625 C 22.363281 1.300781 19.675781 2.65625 16.125 2.65625 C 13.957031 2.65625 12.207031 1.816406 10.875 0.140625 C 9.539062 -1.535156 8.476562 -3.703125 7.6875 -6.359375 C 6.90625 -9.023438 6.335938 -11.984375 5.984375 -15.234375 C 5.640625 -18.492188 5.441406 -21.675781 5.390625 -24.78125 C 5.347656 -27.882812 5.347656 -30.71875 5.390625 -33.28125 C 5.441406 -35.851562 5.46875 -37.78125 5.46875 -39.0625 C 5.46875 -41.03125 5.539062 -44.28125 5.6875 -48.8125 C 5.84375 -53.351562 6.164062 -58.410156 6.65625 -63.984375 C 7.144531 -69.554688 7.785156 -75.300781 8.578125 -81.21875 C 9.367188 -87.132812 10.40625 -92.535156 11.6875 -97.421875 C 12.96875 -102.304688 14.519531 -106.273438 16.34375 -109.328125 C 18.164062 -112.390625 20.3125 -113.867188 22.78125 -113.765625 C 24.363281 -113.671875 25.71875 -112.984375 26.84375 -111.703125 C 27.976562 -110.421875 28.914062 -108.769531 29.65625 -106.75 C 30.40625 -104.726562 31.023438 -102.53125 31.515625 -100.15625 C 32.003906 -97.789062 32.375 -95.445312 32.625 -93.125 C 32.875 -90.8125 33.019531 -88.664062 33.0625 -86.6875 C 33.113281 -84.71875 33.140625 -83.191406 33.140625 -82.109375 C 33.140625 -79.546875 33.085938 -76.984375 32.984375 -74.421875 C 32.890625 -71.859375 32.742188 -69.289062 32.546875 -66.71875 C 34.816406 -69.78125 37.847656 -72.296875 41.640625 -74.265625 C 45.441406 -76.242188 49.265625 -77.234375 53.109375 -77.234375 C 58.046875 -77.234375 61.769531 -75.875 64.28125 -73.15625 C 66.800781 -70.445312 68.601562 -67.09375 69.6875 -63.09375 C 70.769531 -59.101562 71.359375 -54.863281 71.453125 -50.375 C 71.554688 -45.882812 71.609375 -41.863281 71.609375 -38.3125 Z M 71.609375 -38.3125 "/></g></g><g transform="translate(796.900049, 651.415567)"><g><path d="M 28.84375 -103.265625 C 28.84375 -101.890625 28.472656 -100.65625 27.734375 -99.5625 C 26.992188 -98.476562 26.03125 -97.515625 24.84375 -96.671875 C 23.664062 -95.835938 22.382812 -95.195312 21 -94.75 C 19.625 -94.3125 18.34375 -94.09375 17.15625 -94.09375 C 15.1875 -94.09375 13.460938 -94.585938 11.984375 -95.578125 C 10.503906 -96.566406 9.765625 -98.09375 9.765625 -100.15625 C 9.765625 -101.632812 10.132812 -102.941406 10.875 -104.078125 C 11.613281 -105.210938 12.523438 -106.148438 13.609375 -106.890625 C 14.691406 -107.628906 15.921875 -108.195312 17.296875 -108.59375 C 18.679688 -108.988281 20.019531 -109.1875 21.3125 -109.1875 C 23.175781 -109.1875 24.894531 -108.742188 26.46875 -107.859375 C 28.050781 -106.972656 28.84375 -105.441406 28.84375 -103.265625 Z M 30.03125 -52.96875 C 30.03125 -51.582031 30.03125 -50.125 30.03125 -48.59375 C 30.03125 -47.070312 29.984375 -45.617188 29.890625 -44.234375 C 29.785156 -42.554688 29.734375 -40.3125 29.734375 -37.5 C 29.734375 -34.6875 29.632812 -31.65625 29.4375 -28.40625 C 29.238281 -25.15625 28.914062 -21.851562 28.46875 -18.5 C 28.03125 -15.144531 27.316406 -12.082031 26.328125 -9.3125 C 25.347656 -6.550781 24.039062 -4.304688 22.40625 -2.578125 C 20.78125 -0.859375 18.738281 0.046875 16.28125 0.140625 C 14.40625 0.242188 12.820312 -0.488281 11.53125 -2.0625 C 10.25 -3.644531 9.191406 -5.691406 8.359375 -8.203125 C 7.523438 -10.722656 6.910156 -13.535156 6.515625 -16.640625 C 6.117188 -19.753906 5.820312 -22.765625 5.625 -25.671875 C 5.425781 -28.578125 5.328125 -31.265625 5.328125 -33.734375 C 5.328125 -36.203125 5.328125 -38.023438 5.328125 -39.203125 C 5.328125 -40.785156 5.328125 -43.03125 5.328125 -45.9375 C 5.328125 -48.84375 5.425781 -51.972656 5.625 -55.328125 C 5.820312 -58.679688 6.191406 -62.082031 6.734375 -65.53125 C 7.273438 -68.988281 8.0625 -72.144531 9.09375 -75 C 10.132812 -77.863281 11.492188 -80.179688 13.171875 -81.953125 C 14.847656 -83.734375 16.96875 -84.625 19.53125 -84.625 C 22.195312 -84.625 24.21875 -83.289062 25.59375 -80.625 C 26.976562 -77.96875 28.015625 -74.863281 28.703125 -71.3125 C 29.390625 -67.757812 29.78125 -64.234375 29.875 -60.734375 C 29.976562 -57.234375 30.03125 -54.644531 30.03125 -52.96875 Z M 30.03125 -52.96875 "/></g></g><g transform="translate(832.999979, 651.415567)"><g><path d="M 46.453125 4.140625 C 44.773438 4.140625 43.441406 3.375 42.453125 1.84375 C 41.472656 0.320312 40.734375 -1.421875 40.234375 -3.390625 C 39.742188 -5.367188 39.425781 -7.367188 39.28125 -9.390625 C 39.132812 -11.410156 39.0625 -12.96875 39.0625 -14.0625 C 39.0625 -17.019531 39.234375 -19.976562 39.578125 -22.9375 C 39.921875 -25.894531 40.3125 -28.851562 40.75 -31.8125 C 41.195312 -34.769531 41.59375 -37.726562 41.9375 -40.6875 C 42.289062 -43.644531 42.46875 -46.601562 42.46875 -49.5625 C 42.46875 -50.75 42.414062 -52.03125 42.3125 -53.40625 C 42.21875 -54.789062 41.992188 -56.097656 41.640625 -57.328125 C 41.296875 -58.566406 40.726562 -59.578125 39.9375 -60.359375 C 39.15625 -61.148438 38.125 -61.546875 36.84375 -61.546875 C 35.957031 -61.546875 34.96875 -60.828125 33.875 -59.390625 C 32.789062 -57.960938 31.78125 -56.335938 30.84375 -54.515625 C 29.90625 -52.691406 29.113281 -50.867188 28.46875 -49.046875 C 27.832031 -47.222656 27.515625 -45.867188 27.515625 -44.984375 C 27.515625 -42.804688 27.539062 -40.609375 27.59375 -38.390625 C 27.644531 -36.171875 27.671875 -33.925781 27.671875 -31.65625 L 27.671875 -23.078125 C 27.566406 -21.304688 27.414062 -19.484375 27.21875 -17.609375 C 27.019531 -15.734375 26.722656 -13.90625 26.328125 -12.125 C 26.035156 -10.351562 25.59375 -8.65625 25 -7.03125 C 24.40625 -5.40625 23.640625 -3.972656 22.703125 -2.734375 C 21.773438 -1.503906 20.664062 -0.492188 19.375 0.296875 C 18.09375 1.085938 16.566406 1.484375 14.796875 1.484375 C 12.828125 1.484375 11.195312 0.84375 9.90625 -0.4375 C 8.625 -1.726562 7.585938 -3.382812 6.796875 -5.40625 C 6.015625 -7.425781 5.453125 -9.691406 5.109375 -12.203125 C 4.765625 -14.722656 4.515625 -17.191406 4.359375 -19.609375 C 4.210938 -22.023438 4.164062 -24.242188 4.21875 -26.265625 C 4.269531 -28.285156 4.296875 -29.882812 4.296875 -31.0625 L 4.296875 -38.015625 C 4.296875 -41.765625 4.21875 -45.460938 4.0625 -49.109375 C 3.914062 -52.765625 3.84375 -56.414062 3.84375 -60.0625 C 3.84375 -62.039062 3.867188 -64.554688 3.921875 -67.609375 C 3.972656 -70.671875 4.34375 -73.65625 5.03125 -76.5625 C 5.71875 -79.46875 6.847656 -81.957031 8.421875 -84.03125 C 10.003906 -86.101562 12.328125 -87.140625 15.390625 -87.140625 C 16.765625 -87.140625 17.992188 -86.695312 19.078125 -85.8125 C 20.171875 -84.925781 21.132812 -83.835938 21.96875 -82.546875 C 22.8125 -81.265625 23.503906 -79.882812 24.046875 -78.40625 C 24.585938 -76.925781 25.003906 -75.644531 25.296875 -74.5625 C 26.285156 -75.945312 27.445312 -77.28125 28.78125 -78.5625 C 30.113281 -79.84375 31.613281 -80.972656 33.28125 -81.953125 C 34.957031 -82.941406 36.832031 -83.734375 38.90625 -84.328125 C 40.976562 -84.921875 43.347656 -85.21875 46.015625 -85.21875 C 51.046875 -85.21875 54.960938 -84.007812 57.765625 -81.59375 C 60.578125 -79.175781 62.648438 -76.164062 63.984375 -72.5625 C 65.316406 -68.96875 66.128906 -65.097656 66.421875 -60.953125 C 66.722656 -56.804688 66.875 -53.0625 66.875 -49.71875 C 66.875 -48.039062 66.722656 -45.546875 66.421875 -42.234375 C 66.128906 -38.929688 65.660156 -35.28125 65.015625 -31.28125 C 64.378906 -27.289062 63.519531 -23.195312 62.4375 -19 C 61.351562 -14.8125 60.070312 -10.992188 58.59375 -7.546875 C 57.113281 -4.097656 55.359375 -1.289062 53.328125 0.875 C 51.304688 3.050781 49.015625 4.140625 46.453125 4.140625 Z M 46.453125 4.140625 "/></g></g><g transform="translate(903.720335, 651.415567)"><g><path d="M 71.453125 -50.453125 C 71.453125 -45.421875 71.378906 -40.390625 71.234375 -35.359375 C 71.085938 -30.328125 70.816406 -25.296875 70.421875 -20.265625 C 70.128906 -15.929688 69.734375 -11.296875 69.234375 -6.359375 C 68.742188 -1.429688 67.957031 3.472656 66.875 8.359375 C 65.789062 13.242188 64.359375 17.925781 62.578125 22.40625 C 60.804688 26.894531 58.460938 30.863281 55.546875 34.3125 C 52.640625 37.769531 49.113281 40.535156 44.96875 42.609375 C 40.832031 44.679688 35.90625 45.71875 30.1875 45.71875 C 27.519531 45.71875 24.535156 45.296875 21.234375 44.453125 C 17.929688 43.617188 14.820312 42.410156 11.90625 40.828125 C 9 39.253906 6.535156 37.304688 4.515625 34.984375 C 2.492188 32.671875 1.484375 29.984375 1.484375 26.921875 C 1.484375 24.660156 2.296875 22.566406 3.921875 20.640625 C 5.546875 18.710938 7.640625 17.75 10.203125 17.75 C 11.785156 17.75 13.289062 18.019531 14.71875 18.5625 C 16.144531 19.101562 17.570312 19.71875 19 20.40625 C 20.4375 21.101562 21.820312 21.722656 23.15625 22.265625 C 24.488281 22.804688 25.84375 23.078125 27.21875 23.078125 C 30.875 23.078125 33.929688 22.164062 36.390625 20.34375 C 38.859375 18.519531 40.832031 16.203125 42.3125 13.390625 C 43.789062 10.578125 44.898438 7.519531 45.640625 4.21875 C 46.378906 0.914062 46.898438 -2.210938 47.203125 -5.171875 C 45.222656 -2.910156 42.925781 -1.359375 40.3125 -0.515625 C 37.695312 0.316406 34.960938 0.734375 32.109375 0.734375 C 26.878906 0.734375 22.4375 -0.175781 18.78125 -2 C 15.132812 -3.820312 12.175781 -6.332031 9.90625 -9.53125 C 7.644531 -12.738281 5.96875 -16.460938 4.875 -20.703125 C 3.789062 -24.953125 3.25 -29.539062 3.25 -34.46875 C 3.25 -37.53125 3.566406 -40.984375 4.203125 -44.828125 C 4.847656 -48.671875 5.8125 -52.566406 7.09375 -56.515625 C 8.382812 -60.460938 9.988281 -64.304688 11.90625 -68.046875 C 13.832031 -71.796875 16.078125 -75.101562 18.640625 -77.96875 C 21.203125 -80.832031 24.085938 -83.148438 27.296875 -84.921875 C 30.503906 -86.703125 34.03125 -87.59375 37.875 -87.59375 C 41.625 -87.59375 44.953125 -86.503906 47.859375 -84.328125 C 50.765625 -82.160156 52.46875 -79.101562 52.96875 -75.15625 C 54.050781 -77.226562 55.476562 -79.273438 57.25 -81.296875 C 59.03125 -83.316406 61.203125 -84.328125 63.765625 -84.328125 C 65.148438 -84.328125 66.3125 -83.632812 67.25 -82.25 C 68.1875 -80.875 68.925781 -79.078125 69.46875 -76.859375 C 70.007812 -74.640625 70.425781 -72.222656 70.71875 -69.609375 C 71.007812 -66.992188 71.203125 -64.425781 71.296875 -61.90625 C 71.398438 -59.394531 71.453125 -57.101562 71.453125 -55.03125 C 71.453125 -52.96875 71.453125 -51.441406 71.453125 -50.453125 Z M 48.96875 -40.828125 C 48.96875 -42.304688 48.742188 -44.226562 48.296875 -46.59375 C 47.859375 -48.96875 47.21875 -51.238281 46.375 -53.40625 C 45.539062 -55.582031 44.484375 -57.457031 43.203125 -59.03125 C 41.921875 -60.613281 40.390625 -61.40625 38.609375 -61.40625 C 36.347656 -61.40625 34.351562 -60.613281 32.625 -59.03125 C 30.894531 -57.457031 29.4375 -55.554688 28.25 -53.328125 C 27.070312 -51.109375 26.160156 -48.742188 25.515625 -46.234375 C 24.878906 -43.722656 24.5625 -41.578125 24.5625 -39.796875 C 24.5625 -38.515625 24.660156 -36.785156 24.859375 -34.609375 C 25.054688 -32.441406 25.472656 -30.320312 26.109375 -28.25 C 26.753906 -26.1875 27.617188 -24.414062 28.703125 -22.9375 C 29.785156 -21.457031 31.21875 -20.71875 33 -20.71875 C 35.65625 -20.71875 37.96875 -21.359375 39.9375 -22.640625 C 41.914062 -23.921875 43.570312 -25.546875 44.90625 -27.515625 C 46.238281 -29.492188 47.25 -31.664062 47.9375 -34.03125 C 48.625 -36.394531 48.96875 -38.660156 48.96875 -40.828125 Z M 48.96875 -40.828125 "/></g></g><g transform="translate(981.246414, 651.415567)"><g><path d="M 32.109375 -61.984375 C 32.109375 -60.410156 32.007812 -58.265625 31.8125 -55.546875 C 31.613281 -52.835938 31.316406 -49.929688 30.921875 -46.828125 C 30.523438 -43.722656 29.957031 -40.566406 29.21875 -37.359375 C 28.476562 -34.148438 27.613281 -31.238281 26.625 -28.625 C 25.644531 -26.007812 24.460938 -23.890625 23.078125 -22.265625 C 21.703125 -20.640625 20.125 -19.828125 18.34375 -19.828125 C 16.175781 -19.828125 14.328125 -20.882812 12.796875 -23 C 11.265625 -25.125 9.976562 -27.835938 8.9375 -31.140625 C 7.90625 -34.441406 7.09375 -38.113281 6.5 -42.15625 C 5.914062 -46.207031 5.472656 -50.179688 5.171875 -54.078125 C 4.878906 -57.972656 4.707031 -61.570312 4.65625 -64.875 C 4.613281 -68.175781 4.59375 -70.71875 4.59375 -72.5 C 4.59375 -74.269531 4.59375 -76.507812 4.59375 -79.21875 C 4.59375 -81.9375 4.710938 -84.820312 4.953125 -87.875 C 5.203125 -90.9375 5.597656 -93.972656 6.140625 -96.984375 C 6.679688 -99.992188 7.492188 -102.726562 8.578125 -105.1875 C 9.660156 -107.65625 11.085938 -109.65625 12.859375 -111.1875 C 14.640625 -112.71875 16.863281 -113.484375 19.53125 -113.484375 C 21.894531 -113.484375 23.84375 -112.46875 25.375 -110.4375 C 26.90625 -108.414062 28.140625 -105.800781 29.078125 -102.59375 C 30.015625 -99.394531 30.703125 -95.820312 31.140625 -91.875 C 31.585938 -87.925781 31.882812 -84.050781 32.03125 -80.25 C 32.175781 -76.457031 32.222656 -72.929688 32.171875 -69.671875 C 32.128906 -66.421875 32.109375 -63.859375 32.109375 -61.984375 Z M 29.296875 -5.765625 C 29.296875 -4.085938 28.898438 -2.632812 28.109375 -1.40625 C 27.316406 -0.175781 26.28125 0.851562 25 1.6875 C 23.71875 2.53125 22.335938 3.148438 20.859375 3.546875 C 19.378906 3.941406 17.898438 4.140625 16.421875 4.140625 C 14.253906 4.140625 12.179688 3.570312 10.203125 2.4375 C 8.234375 1.300781 7.25 -0.492188 7.25 -2.953125 C 7.25 -4.429688 7.664062 -5.785156 8.5 -7.015625 C 9.34375 -8.253906 10.40625 -9.316406 11.6875 -10.203125 C 12.96875 -11.097656 14.375 -11.789062 15.90625 -12.28125 C 17.4375 -12.769531 18.890625 -13.015625 20.265625 -13.015625 C 22.535156 -13.015625 24.609375 -12.445312 26.484375 -11.3125 C 28.359375 -10.175781 29.296875 -8.328125 29.296875 -5.765625 Z M 29.296875 -5.765625 "/></g></g></g></svg>