<svg xmlns="http://www.w3.org/2000/svg" xmlns:xlink="http://www.w3.org/1999/xlink" width="1920" zoomAndPan="magnify" viewBox="0 0 1440 809.999993" height="1080" preserveAspectRatio="xMidYMid meet" version="1.0"><defs><g/><clipPath id="78e910b4ef"><path d="M 724 309 L 1000.328125 309 L 1000.328125 545.753906 L 724 545.753906 Z M 724 309 " clip-rule="nonzero"/></clipPath></defs><path fill="#100f0d" d="M 770.59375 216.578125 C 770.59375 244.601562 747.886719 267.304688 719.867188 267.304688 C 691.867188 267.304688 669.140625 244.601562 669.140625 216.578125 C 669.140625 188.582031 691.867188 165.851562 719.867188 165.851562 C 747.886719 165.851562 770.59375 188.582031 770.59375 216.578125 " fill-opacity="1" fill-rule="nonzero"/><path fill="#100f0d" d="M 862.226562 488.390625 C 827.730469 488.390625 798.636719 461.441406 795.988281 427.078125 C 793.671875 395.929688 805.613281 364.714844 827.96875 343.605469 C 855.726562 314.863281 864.347656 287.648438 866.621094 269.515625 C 938.851562 342.859375 928.921875 419.835938 928.789062 420.648438 L 928.722656 421.257812 C 925.945312 460.152344 897.96875 488.390625 862.226562 488.390625 " fill-opacity="1" fill-rule="nonzero"/><g clip-path="url(#78e910b4ef)"><path fill="#100f0d" d="M 958.953125 309.808594 C 961.140625 315.472656 950.96875 334.898438 934.78125 350.453125 C 947.292969 388.753906 944.800781 417.804688 944.296875 422.265625 L 944.253906 422.660156 C 940.753906 469.796875 906.300781 503.964844 862.226562 503.964844 C 819.636719 503.964844 783.71875 470.71875 780.457031 428.257812 C 778.402344 400.894531 785.992188 373.527344 801.152344 351.261719 C 781.53125 336.234375 770.570312 317.792969 765.476562 309.808594 C 740.144531 334.789062 724.417969 369.503906 724.417969 407.894531 C 724.417969 483.996094 786.101562 545.703125 862.226562 545.703125 C 938.324219 545.703125 1000.011719 483.996094 1000.011719 407.894531 C 1000.011719 369.503906 984.285156 334.789062 958.953125 309.808594 " fill-opacity="1" fill-rule="nonzero"/></g><path fill="#100f0d" d="M 739.554688 315.78125 C 733.1875 317.050781 726.605469 317.707031 719.867188 317.707031 C 664 317.707031 618.699219 272.402344 618.699219 216.535156 C 618.699219 160.667969 664 115.367188 719.867188 115.367188 C 775.753906 115.367188 821.035156 160.667969 821.035156 216.535156 C 821.035156 250.988281 803.820312 281.414062 777.503906 299.679688 L 779.714844 303.160156 C 784.878906 311.316406 794.480469 326.519531 810.625 338.902344 L 810.777344 339.011719 C 812.765625 336.78125 814.824219 334.59375 816.988281 332.535156 C 841.730469 306.832031 849.230469 283.035156 851.15625 267.570312 L 855.136719 235.632812 L 877.710938 258.578125 C 893.089844 274.175781 904.945312 289.992188 914.132812 305.347656 C 942.746094 283.101562 971.945312 254.203125 999.726562 216.578125 C 874.234375 46.660156 719.867188 54.183594 719.867188 54.183594 C 719.867188 54.183594 565.5 46.660156 440.027344 216.578125 C 548.238281 363.136719 677.933594 377.683594 711.578125 378.933594 C 715.929688 356.007812 725.445312 334.484375 739.554688 315.78125 " fill-opacity="1" fill-rule="nonzero"/><g fill="#ff3131" fill-opacity="1"><g transform="translate(315.83635, 669.847748)"><g><path d="M 58.359375 -77.71875 C 58.359375 -76.070312 58.203125 -74.488281 57.890625 -72.96875 C 57.585938 -71.457031 57.046875 -70.132812 56.265625 -69 C 55.492188 -67.875 54.457031 -66.988281 53.15625 -66.34375 C 51.851562 -65.695312 50.25 -65.375 48.34375 -65.375 C 46.175781 -65.375 44.570312 -65.804688 43.53125 -66.671875 C 42.5 -67.535156 41.785156 -68.59375 41.390625 -69.84375 C 41.003906 -71.101562 40.8125 -72.46875 40.8125 -73.9375 C 40.8125 -75.414062 40.742188 -76.78125 40.609375 -78.03125 C 40.484375 -79.289062 40.160156 -80.351562 39.640625 -81.21875 C 39.117188 -82.09375 38.164062 -82.53125 36.78125 -82.53125 C 35.476562 -82.53125 34.414062 -81.53125 33.59375 -79.53125 C 32.769531 -77.539062 32.097656 -75.242188 31.578125 -72.640625 C 31.054688 -70.046875 30.707031 -67.515625 30.53125 -65.046875 C 30.363281 -62.578125 30.28125 -60.910156 30.28125 -60.046875 C 31.40625 -60.210938 32.488281 -60.359375 33.53125 -60.484375 C 34.570312 -60.617188 35.695312 -60.6875 36.90625 -60.6875 C 38.125 -60.6875 39.378906 -60.554688 40.671875 -60.296875 C 41.972656 -60.035156 43.1875 -59.625 44.3125 -59.0625 C 45.4375 -58.5 46.34375 -57.71875 47.03125 -56.71875 C 47.726562 -55.726562 48.078125 -54.492188 48.078125 -53.015625 C 48.078125 -51.460938 47.40625 -50.078125 46.0625 -48.859375 C 44.726562 -47.648438 43.128906 -46.632812 41.265625 -45.8125 C 39.398438 -44.988281 37.515625 -44.316406 35.609375 -43.796875 C 33.703125 -43.273438 32.1875 -42.925781 31.0625 -42.75 C 31.320312 -36.78125 31.453125 -30.757812 31.453125 -24.6875 C 31.453125 -18.96875 31.320312 -13.335938 31.0625 -7.796875 C 30.882812 -5.109375 29.953125 -2.898438 28.265625 -1.171875 C 26.578125 0.554688 24.390625 1.421875 21.703125 1.421875 C 20.234375 1.421875 18.976562 1.140625 17.9375 0.578125 C 16.894531 0.015625 16.023438 -0.738281 15.328125 -1.6875 C 14.640625 -2.644531 14.097656 -3.726562 13.703125 -4.9375 C 13.316406 -6.15625 13.082031 -7.410156 13 -8.703125 C 12.5625 -13.898438 12.210938 -19.117188 11.953125 -24.359375 C 11.691406 -29.609375 11.609375 -34.875 11.703125 -40.15625 C 11.085938 -40.070312 10.5 -40.03125 9.9375 -40.03125 C 9.375 -40.03125 8.789062 -40.03125 8.1875 -40.03125 C 7.144531 -40.03125 5.882812 -40.160156 4.40625 -40.421875 C 2.9375 -40.679688 1.53125 -41.132812 0.1875 -41.78125 C -1.144531 -42.425781 -2.285156 -43.222656 -3.234375 -44.171875 C -4.191406 -45.128906 -4.671875 -46.347656 -4.671875 -47.828125 C -4.671875 -49.734375 -4.039062 -51.332031 -2.78125 -52.625 C -1.53125 -53.925781 -0.0195312 -54.988281 1.75 -55.8125 C 3.53125 -56.632812 5.394531 -57.21875 7.34375 -57.5625 C 9.289062 -57.914062 11 -58.179688 12.46875 -58.359375 L 12.46875 -60.4375 C 12.46875 -64.675781 12.859375 -69.222656 13.640625 -74.078125 C 14.421875 -78.929688 15.804688 -83.4375 17.796875 -87.59375 C 19.796875 -91.75 22.523438 -95.191406 25.984375 -97.921875 C 29.453125 -100.648438 33.875 -102.015625 39.25 -102.015625 C 42.625 -102.015625 45.523438 -101.300781 47.953125 -99.875 C 50.378906 -98.445312 52.367188 -96.582031 53.921875 -94.28125 C 55.484375 -91.988281 56.613281 -89.390625 57.3125 -86.484375 C 58.007812 -83.585938 58.359375 -80.664062 58.359375 -77.71875 Z M 58.359375 -77.71875 "/></g></g><g transform="translate(365.480049, 669.847748)"><g><path d="M 59.125 -18.328125 C 59.125 -16.765625 59.054688 -14.726562 58.921875 -12.21875 C 58.796875 -9.707031 58.429688 -7.257812 57.828125 -4.875 C 57.222656 -2.488281 56.269531 -0.429688 54.96875 1.296875 C 53.664062 3.035156 51.847656 3.90625 49.515625 3.90625 C 46.304688 3.90625 43.832031 2.863281 42.09375 0.78125 C 40.363281 -1.300781 39.546875 -3.898438 39.640625 -7.015625 C 36.867188 -4.585938 33.726562 -2.679688 30.21875 -1.296875 C 26.707031 0.0859375 23.132812 0.78125 19.5 0.78125 C 16.976562 0.78125 14.59375 0.175781 12.34375 -1.03125 C 10.09375 -2.25 8.097656 -3.8125 6.359375 -5.71875 C 4.628906 -7.625 3.242188 -9.765625 2.203125 -12.140625 C 1.171875 -14.523438 0.65625 -16.890625 0.65625 -19.234375 C 0.65625 -23.390625 1.929688 -27.023438 4.484375 -30.140625 C 7.035156 -33.265625 10.175781 -35.929688 13.90625 -38.140625 C 17.632812 -40.347656 21.597656 -42.101562 25.796875 -43.40625 C 29.992188 -44.707031 33.738281 -45.570312 37.03125 -46 C 37.03125 -46.4375 37.050781 -46.828125 37.09375 -47.171875 C 37.144531 -47.515625 37.171875 -47.90625 37.171875 -48.34375 C 37.171875 -51.03125 36.429688 -53.195312 34.953125 -54.84375 C 33.484375 -56.488281 31.40625 -57.3125 28.71875 -57.3125 C 26.550781 -57.3125 24.6875 -56.941406 23.125 -56.203125 C 21.570312 -55.472656 20.101562 -54.648438 18.71875 -53.734375 C 17.332031 -52.828125 15.941406 -52.003906 14.546875 -51.265625 C 13.160156 -50.535156 11.601562 -50.171875 9.875 -50.171875 C 7.96875 -50.171875 6.34375 -50.773438 5 -51.984375 C 3.65625 -53.191406 2.984375 -54.75 2.984375 -56.65625 C 2.984375 -59.519531 3.828125 -62.117188 5.515625 -64.453125 C 7.210938 -66.796875 9.335938 -68.769531 11.890625 -70.375 C 14.441406 -71.976562 17.210938 -73.234375 20.203125 -74.140625 C 23.191406 -75.046875 25.945312 -75.5 28.46875 -75.5 C 30.800781 -75.5 33.132812 -75.21875 35.46875 -74.65625 C 37.8125 -74.09375 40.019531 -73.226562 42.09375 -72.0625 C 44.175781 -70.894531 46.0625 -69.460938 47.75 -67.765625 C 49.445312 -66.078125 50.816406 -64.109375 51.859375 -61.859375 C 53.410156 -58.648438 54.660156 -55.25 55.609375 -51.65625 C 56.566406 -48.0625 57.304688 -44.378906 57.828125 -40.609375 C 58.347656 -36.835938 58.691406 -33.066406 58.859375 -29.296875 C 59.035156 -25.535156 59.125 -21.878906 59.125 -18.328125 Z M 38.34375 -22.484375 L 37.953125 -31.3125 C 37.773438 -31.3125 37.597656 -31.332031 37.421875 -31.375 C 37.253906 -31.425781 37.082031 -31.453125 36.90625 -31.453125 C 35.78125 -31.453125 34.375 -31.171875 32.6875 -30.609375 C 31 -30.046875 29.375 -29.265625 27.8125 -28.265625 C 26.25 -27.265625 24.925781 -26.15625 23.84375 -24.9375 C 22.757812 -23.726562 22.21875 -22.476562 22.21875 -21.1875 C 22.21875 -19.96875 22.648438 -19.140625 23.515625 -18.703125 C 24.390625 -18.273438 25.390625 -18.0625 26.515625 -18.0625 C 28.421875 -18.0625 30.457031 -18.554688 32.625 -19.546875 C 34.789062 -20.546875 36.695312 -21.523438 38.34375 -22.484375 Z M 38.34375 -22.484375 "/></g></g><g transform="translate(428.509351, 669.847748)"><g><path d="M 52.109375 -49.90625 C 52.109375 -49.46875 52.066406 -49.007812 51.984375 -48.53125 C 51.898438 -48.0625 51.769531 -47.609375 51.59375 -47.171875 C 50.8125 -45.179688 49.597656 -43.515625 47.953125 -42.171875 C 46.304688 -40.828125 44.359375 -40.15625 42.109375 -40.15625 C 38.722656 -40.15625 36.425781 -41.84375 35.21875 -45.21875 C 35.039062 -45.65625 34.953125 -46.15625 34.953125 -46.71875 C 34.953125 -47.28125 34.910156 -47.863281 34.828125 -48.46875 L 34.828125 -52.25 C 34.648438 -53.457031 34.34375 -54.40625 33.90625 -55.09375 C 33.476562 -55.789062 32.742188 -56.140625 31.703125 -56.140625 C 30.234375 -56.140625 28.828125 -55.207031 27.484375 -53.34375 C 26.140625 -51.476562 24.96875 -49.269531 23.96875 -46.71875 C 22.976562 -44.164062 22.175781 -41.546875 21.5625 -38.859375 C 20.957031 -36.171875 20.65625 -34.003906 20.65625 -32.359375 C 20.65625 -31.054688 20.742188 -29.472656 20.921875 -27.609375 C 21.097656 -25.753906 21.445312 -23.957031 21.96875 -22.21875 C 22.488281 -20.488281 23.203125 -18.992188 24.109375 -17.734375 C 25.015625 -16.484375 26.207031 -15.859375 27.6875 -15.859375 C 29.15625 -15.859375 30.515625 -16.3125 31.765625 -17.21875 C 33.023438 -18.125 34.265625 -19.1875 35.484375 -20.40625 C 36.609375 -21.445312 37.84375 -22.53125 39.1875 -23.65625 C 40.53125 -24.78125 42.066406 -25.34375 43.796875 -25.34375 C 45.960938 -25.34375 47.671875 -24.5625 48.921875 -23 C 50.179688 -21.4375 50.8125 -19.660156 50.8125 -17.671875 C 50.8125 -14.722656 50.03125 -11.972656 48.46875 -9.421875 C 46.914062 -6.867188 44.96875 -4.660156 42.625 -2.796875 C 40.289062 -0.929688 37.691406 0.539062 34.828125 1.625 C 31.972656 2.707031 29.242188 3.25 26.640625 3.25 C 21.960938 3.25 18 2.082031 14.75 -0.25 C 11.5 -2.59375 8.878906 -5.5625 6.890625 -9.15625 C 4.898438 -12.757812 3.46875 -16.679688 2.59375 -20.921875 C 1.726562 -25.171875 1.296875 -29.203125 1.296875 -33.015625 C 1.296875 -37.429688 1.898438 -42.21875 3.109375 -47.375 C 4.328125 -52.53125 6.191406 -57.316406 8.703125 -61.734375 C 11.210938 -66.148438 14.4375 -69.832031 18.375 -72.78125 C 22.320312 -75.726562 27.023438 -77.203125 32.484375 -77.203125 C 35.867188 -77.203125 38.796875 -76.460938 41.265625 -74.984375 C 43.734375 -73.515625 45.769531 -71.585938 47.375 -69.203125 C 48.976562 -66.816406 50.191406 -64.148438 51.015625 -61.203125 C 51.835938 -58.265625 52.25 -55.363281 52.25 -52.5 C 52.25 -52.070312 52.25 -51.640625 52.25 -51.203125 C 52.25 -50.765625 52.203125 -50.332031 52.109375 -49.90625 Z M 52.109375 -49.90625 "/></g></g><g transform="translate(484.001129, 669.847748)"><g><path d="M 58.359375 -23.125 C 58.359375 -20.1875 57.425781 -17.304688 55.5625 -14.484375 C 53.695312 -11.671875 51.351562 -9.160156 48.53125 -6.953125 C 45.71875 -4.742188 42.707031 -2.96875 39.5 -1.625 C 36.300781 -0.28125 33.359375 0.390625 30.671875 0.390625 C 26.078125 0.390625 21.984375 -0.753906 18.390625 -3.046875 C 14.796875 -5.347656 11.785156 -8.273438 9.359375 -11.828125 C 6.929688 -15.378906 5.085938 -19.296875 3.828125 -23.578125 C 2.578125 -27.867188 1.953125 -32.050781 1.953125 -36.125 C 1.953125 -40.457031 2.554688 -45.09375 3.765625 -50.03125 C 4.984375 -54.96875 6.828125 -59.515625 9.296875 -63.671875 C 11.765625 -67.835938 14.878906 -71.304688 18.640625 -74.078125 C 22.410156 -76.847656 26.894531 -78.234375 32.09375 -78.234375 C 35.039062 -78.234375 37.859375 -77.734375 40.546875 -76.734375 C 43.234375 -75.742188 45.570312 -74.335938 47.5625 -72.515625 C 49.550781 -70.691406 51.148438 -68.523438 52.359375 -66.015625 C 53.578125 -63.503906 54.1875 -60.691406 54.1875 -57.578125 C 54.1875 -53.503906 53.320312 -49.691406 51.59375 -46.140625 C 49.863281 -42.585938 47.566406 -39.507812 44.703125 -36.90625 C 41.847656 -34.3125 38.554688 -32.210938 34.828125 -30.609375 C 31.097656 -29.003906 27.285156 -28.113281 23.390625 -27.9375 C 23.734375 -25.425781 24.75 -23.609375 26.4375 -22.484375 C 28.132812 -21.359375 30.148438 -20.796875 32.484375 -20.796875 C 34.222656 -20.796875 35.914062 -21.226562 37.5625 -22.09375 C 39.207031 -22.957031 40.804688 -23.929688 42.359375 -25.015625 C 43.921875 -26.097656 45.457031 -27.070312 46.96875 -27.9375 C 48.488281 -28.800781 50.03125 -29.234375 51.59375 -29.234375 C 53.320312 -29.234375 54.878906 -28.671875 56.265625 -27.546875 C 57.660156 -26.421875 58.359375 -24.945312 58.359375 -23.125 Z M 37.296875 -54.96875 C 37.296875 -56.09375 36.992188 -57.257812 36.390625 -58.46875 C 35.785156 -59.6875 34.832031 -60.296875 33.53125 -60.296875 C 31.625 -60.296875 30.019531 -59.796875 28.71875 -58.796875 C 27.414062 -57.804688 26.332031 -56.550781 25.46875 -55.03125 C 24.601562 -53.519531 23.929688 -51.894531 23.453125 -50.15625 C 22.984375 -48.425781 22.703125 -46.828125 22.609375 -45.359375 C 23.828125 -45.617188 25.28125 -45.960938 26.96875 -46.390625 C 28.65625 -46.828125 30.253906 -47.410156 31.765625 -48.140625 C 33.285156 -48.878906 34.585938 -49.8125 35.671875 -50.9375 C 36.753906 -52.070312 37.296875 -53.414062 37.296875 -54.96875 Z M 37.296875 -54.96875 "/></g></g><g transform="translate(543.651542, 669.847748)"><g/></g></g><g fill="#ff3131" fill-opacity="1"><g transform="translate(574.971236, 669.847748)"><g><path d="M 34.171875 4.671875 C 28.023438 4.671875 23.238281 3.867188 19.8125 2.265625 C 16.394531 0.671875 13.835938 -1.597656 12.140625 -4.546875 C 10.453125 -7.492188 9.4375 -11.046875 9.09375 -15.203125 C 8.75 -19.359375 8.578125 -23.992188 8.578125 -29.109375 C 8.578125 -33.179688 8.707031 -37.273438 8.96875 -41.390625 C 9.226562 -45.503906 9.617188 -49.898438 10.140625 -54.578125 C 8.921875 -54.578125 7.960938 -54.554688 7.265625 -54.515625 C 6.578125 -54.472656 6.019531 -54.453125 5.59375 -54.453125 C 2.8125 -54.453125 0.40625 -55.054688 -1.625 -56.265625 C -3.65625 -57.484375 -4.671875 -59.347656 -4.671875 -61.859375 C -4.671875 -63.421875 -4.085938 -64.804688 -2.921875 -66.015625 C -1.753906 -67.234375 -0.265625 -68.273438 1.546875 -69.140625 C 3.367188 -70.003906 5.34375 -70.695312 7.46875 -71.21875 C 9.59375 -71.738281 11.609375 -72.082031 13.515625 -72.25 C 13.515625 -74.675781 13.6875 -77.363281 14.03125 -80.3125 C 14.382812 -83.257812 15.015625 -86.007812 15.921875 -88.5625 C 16.828125 -91.125 18.0625 -93.269531 19.625 -95 C 21.1875 -96.726562 23.179688 -97.59375 25.609375 -97.59375 C 26.992188 -97.59375 28.226562 -97.179688 29.3125 -96.359375 C 30.394531 -95.535156 31.28125 -94.492188 31.96875 -93.234375 C 32.664062 -91.984375 33.1875 -90.578125 33.53125 -89.015625 C 33.875 -87.460938 34.046875 -85.945312 34.046875 -84.46875 C 34.046875 -82.738281 33.914062 -80.960938 33.65625 -79.140625 C 33.394531 -77.328125 32.921875 -75.078125 32.234375 -72.390625 C 33.703125 -72.554688 34.695312 -72.660156 35.21875 -72.703125 C 35.738281 -72.753906 36.21875 -72.78125 36.65625 -72.78125 C 38.125 -72.78125 39.660156 -72.648438 41.265625 -72.390625 C 42.867188 -72.128906 44.335938 -71.691406 45.671875 -71.078125 C 47.015625 -70.472656 48.117188 -69.671875 48.984375 -68.671875 C 49.859375 -67.679688 50.296875 -66.492188 50.296875 -65.109375 C 50.296875 -63.546875 49.664062 -62.15625 48.40625 -60.9375 C 47.15625 -59.726562 45.578125 -58.691406 43.671875 -57.828125 C 41.765625 -56.960938 39.726562 -56.289062 37.5625 -55.8125 C 35.394531 -55.34375 33.359375 -55.019531 31.453125 -54.84375 C 30.929688 -51.289062 30.5625 -48.019531 30.34375 -45.03125 C 30.125 -42.039062 29.882812 -39.03125 29.625 -36 C 29.457031 -34.53125 29.304688 -33.035156 29.171875 -31.515625 C 29.046875 -29.992188 28.984375 -28.457031 28.984375 -26.90625 C 28.984375 -25.78125 29.023438 -24.457031 29.109375 -22.9375 C 29.191406 -21.414062 29.492188 -19.960938 30.015625 -18.578125 C 30.535156 -17.191406 31.359375 -16 32.484375 -15 C 33.609375 -14.007812 35.171875 -13.515625 37.171875 -13.515625 C 38.378906 -13.515625 39.632812 -13.625 40.9375 -13.84375 C 42.238281 -14.0625 43.535156 -14.171875 44.828125 -14.171875 C 47.085938 -14.171875 48.710938 -13.390625 49.703125 -11.828125 C 50.703125 -10.265625 51.203125 -8.269531 51.203125 -5.84375 C 51.203125 -4.03125 50.660156 -2.453125 49.578125 -1.109375 C 48.492188 0.234375 47.128906 1.316406 45.484375 2.140625 C 43.835938 2.960938 41.992188 3.585938 39.953125 4.015625 C 37.921875 4.453125 35.992188 4.671875 34.171875 4.671875 Z M 34.171875 4.671875 "/></g></g></g><g fill="#ff3131" fill-opacity="1"><g transform="translate(624.874836, 669.847748)"><g><path d="M 28.59375 3.765625 C 24.175781 3.765625 20.320312 2.59375 17.03125 0.25 C 13.738281 -2.082031 10.960938 -5.066406 8.703125 -8.703125 C 6.453125 -12.347656 4.765625 -16.398438 3.640625 -20.859375 C 2.515625 -25.316406 1.953125 -29.710938 1.953125 -34.046875 C 1.953125 -38.640625 2.515625 -43.382812 3.640625 -48.28125 C 4.765625 -53.175781 6.492188 -57.632812 8.828125 -61.65625 C 11.171875 -65.6875 14.160156 -68.976562 17.796875 -71.53125 C 21.441406 -74.09375 25.773438 -75.375 30.796875 -75.375 C 35.648438 -75.375 39.785156 -74.050781 43.203125 -71.40625 C 46.628906 -68.769531 49.378906 -65.476562 51.453125 -61.53125 C 53.535156 -57.59375 55.007812 -53.285156 55.875 -48.609375 C 56.75 -43.929688 57.054688 -39.507812 56.796875 -35.34375 C 56.535156 -30.757812 55.816406 -26.125 54.640625 -21.4375 C 53.472656 -16.757812 51.765625 -12.554688 49.515625 -8.828125 C 47.265625 -5.109375 44.40625 -2.082031 40.9375 0.25 C 37.46875 2.59375 33.351562 3.765625 28.59375 3.765625 Z M 29.890625 -54.96875 C 28.585938 -54.96875 27.4375 -54.273438 26.4375 -52.890625 C 25.445312 -51.503906 24.625 -49.8125 23.96875 -47.8125 C 23.320312 -45.820312 22.828125 -43.722656 22.484375 -41.515625 C 22.140625 -39.304688 21.96875 -37.378906 21.96875 -35.734375 C 21.96875 -33.660156 22.160156 -31.410156 22.546875 -28.984375 C 22.929688 -26.554688 23.472656 -24.320312 24.171875 -22.28125 C 24.867188 -20.25 25.710938 -18.5625 26.703125 -17.21875 C 27.703125 -15.875 28.851562 -15.203125 30.15625 -15.203125 C 31.539062 -15.203125 32.726562 -15.851562 33.71875 -17.15625 C 34.71875 -18.457031 35.519531 -20.101562 36.125 -22.09375 C 36.726562 -24.082031 37.160156 -26.269531 37.421875 -28.65625 C 37.679688 -31.039062 37.8125 -33.269531 37.8125 -35.34375 C 37.8125 -37.25 37.640625 -39.347656 37.296875 -41.640625 C 36.953125 -43.941406 36.453125 -46.085938 35.796875 -48.078125 C 35.148438 -50.078125 34.328125 -51.722656 33.328125 -53.015625 C 32.335938 -54.316406 31.191406 -54.96875 29.890625 -54.96875 Z M 29.890625 -54.96875 "/></g></g></g><g fill="#ff3131" fill-opacity="1"><g transform="translate(684.395294, 669.847748)"><g><path d="M 28.59375 3.765625 C 24.175781 3.765625 20.320312 2.59375 17.03125 0.25 C 13.738281 -2.082031 10.960938 -5.066406 8.703125 -8.703125 C 6.453125 -12.347656 4.765625 -16.398438 3.640625 -20.859375 C 2.515625 -25.316406 1.953125 -29.710938 1.953125 -34.046875 C 1.953125 -38.640625 2.515625 -43.382812 3.640625 -48.28125 C 4.765625 -53.175781 6.492188 -57.632812 8.828125 -61.65625 C 11.171875 -65.6875 14.160156 -68.976562 17.796875 -71.53125 C 21.441406 -74.09375 25.773438 -75.375 30.796875 -75.375 C 35.648438 -75.375 39.785156 -74.050781 43.203125 -71.40625 C 46.628906 -68.769531 49.378906 -65.476562 51.453125 -61.53125 C 53.535156 -57.59375 55.007812 -53.285156 55.875 -48.609375 C 56.75 -43.929688 57.054688 -39.507812 56.796875 -35.34375 C 56.535156 -30.757812 55.816406 -26.125 54.640625 -21.4375 C 53.472656 -16.757812 51.765625 -12.554688 49.515625 -8.828125 C 47.265625 -5.109375 44.40625 -2.082031 40.9375 0.25 C 37.46875 2.59375 33.351562 3.765625 28.59375 3.765625 Z M 29.890625 -54.96875 C 28.585938 -54.96875 27.4375 -54.273438 26.4375 -52.890625 C 25.445312 -51.503906 24.625 -49.8125 23.96875 -47.8125 C 23.320312 -45.820312 22.828125 -43.722656 22.484375 -41.515625 C 22.140625 -39.304688 21.96875 -37.378906 21.96875 -35.734375 C 21.96875 -33.660156 22.160156 -31.410156 22.546875 -28.984375 C 22.929688 -26.554688 23.472656 -24.320312 24.171875 -22.28125 C 24.867188 -20.25 25.710938 -18.5625 26.703125 -17.21875 C 27.703125 -15.875 28.851562 -15.203125 30.15625 -15.203125 C 31.539062 -15.203125 32.726562 -15.851562 33.71875 -17.15625 C 34.71875 -18.457031 35.519531 -20.101562 36.125 -22.09375 C 36.726562 -24.082031 37.160156 -26.269531 37.421875 -28.65625 C 37.679688 -31.039062 37.8125 -33.269531 37.8125 -35.34375 C 37.8125 -37.25 37.640625 -39.347656 37.296875 -41.640625 C 36.953125 -43.941406 36.453125 -46.085938 35.796875 -48.078125 C 35.148438 -50.078125 34.328125 -51.722656 33.328125 -53.015625 C 32.335938 -54.316406 31.191406 -54.96875 29.890625 -54.96875 Z M 29.890625 -54.96875 "/></g></g></g><g fill="#ff3131" fill-opacity="1"><g transform="translate(743.915752, 669.847748)"><g/></g></g><g fill="#ff3131" fill-opacity="1"><g transform="translate(775.235478, 669.847748)"><g><path d="M 52.109375 -49.90625 C 52.109375 -49.46875 52.066406 -49.007812 51.984375 -48.53125 C 51.898438 -48.0625 51.769531 -47.609375 51.59375 -47.171875 C 50.8125 -45.179688 49.597656 -43.515625 47.953125 -42.171875 C 46.304688 -40.828125 44.359375 -40.15625 42.109375 -40.15625 C 38.722656 -40.15625 36.425781 -41.84375 35.21875 -45.21875 C 35.039062 -45.65625 34.953125 -46.15625 34.953125 -46.71875 C 34.953125 -47.28125 34.910156 -47.863281 34.828125 -48.46875 L 34.828125 -52.25 C 34.648438 -53.457031 34.34375 -54.40625 33.90625 -55.09375 C 33.476562 -55.789062 32.742188 -56.140625 31.703125 -56.140625 C 30.234375 -56.140625 28.828125 -55.207031 27.484375 -53.34375 C 26.140625 -51.476562 24.96875 -49.269531 23.96875 -46.71875 C 22.976562 -44.164062 22.175781 -41.546875 21.5625 -38.859375 C 20.957031 -36.171875 20.65625 -34.003906 20.65625 -32.359375 C 20.65625 -31.054688 20.742188 -29.472656 20.921875 -27.609375 C 21.097656 -25.753906 21.445312 -23.957031 21.96875 -22.21875 C 22.488281 -20.488281 23.203125 -18.992188 24.109375 -17.734375 C 25.015625 -16.484375 26.207031 -15.859375 27.6875 -15.859375 C 29.15625 -15.859375 30.515625 -16.3125 31.765625 -17.21875 C 33.023438 -18.125 34.265625 -19.1875 35.484375 -20.40625 C 36.609375 -21.445312 37.84375 -22.53125 39.1875 -23.65625 C 40.53125 -24.78125 42.066406 -25.34375 43.796875 -25.34375 C 45.960938 -25.34375 47.671875 -24.5625 48.921875 -23 C 50.179688 -21.4375 50.8125 -19.660156 50.8125 -17.671875 C 50.8125 -14.722656 50.03125 -11.972656 48.46875 -9.421875 C 46.914062 -6.867188 44.96875 -4.660156 42.625 -2.796875 C 40.289062 -0.929688 37.691406 0.539062 34.828125 1.625 C 31.972656 2.707031 29.242188 3.25 26.640625 3.25 C 21.960938 3.25 18 2.082031 14.75 -0.25 C 11.5 -2.59375 8.878906 -5.5625 6.890625 -9.15625 C 4.898438 -12.757812 3.46875 -16.679688 2.59375 -20.921875 C 1.726562 -25.171875 1.296875 -29.203125 1.296875 -33.015625 C 1.296875 -37.429688 1.898438 -42.21875 3.109375 -47.375 C 4.328125 -52.53125 6.191406 -57.316406 8.703125 -61.734375 C 11.210938 -66.148438 14.4375 -69.832031 18.375 -72.78125 C 22.320312 -75.726562 27.023438 -77.203125 32.484375 -77.203125 C 35.867188 -77.203125 38.796875 -76.460938 41.265625 -74.984375 C 43.734375 -73.515625 45.769531 -71.585938 47.375 -69.203125 C 48.976562 -66.816406 50.191406 -64.148438 51.015625 -61.203125 C 51.835938 -58.265625 52.25 -55.363281 52.25 -52.5 C 52.25 -52.070312 52.25 -51.640625 52.25 -51.203125 C 52.25 -50.765625 52.203125 -50.332031 52.109375 -49.90625 Z M 52.109375 -49.90625 "/></g></g></g><g fill="#ff3131" fill-opacity="1"><g transform="translate(830.727276, 669.847748)"><g><path d="M 28.203125 -78.75 C 28.203125 -74.070312 28.003906 -69.375 27.609375 -64.65625 C 27.222656 -59.9375 27.03125 -55.191406 27.03125 -50.421875 C 27.03125 -44.273438 27.222656 -38.125 27.609375 -31.96875 C 28.003906 -25.820312 28.203125 -19.628906 28.203125 -13.390625 C 28.203125 -11.828125 28.113281 -10.070312 27.9375 -8.125 C 27.769531 -6.175781 27.359375 -4.378906 26.703125 -2.734375 C 26.054688 -1.085938 25.082031 0.296875 23.78125 1.421875 C 22.476562 2.554688 20.742188 3.125 18.578125 3.125 C 16.503906 3.125 14.707031 2.101562 13.1875 0.0625 C 11.675781 -1.96875 10.421875 -4.5625 9.421875 -7.71875 C 8.421875 -10.882812 7.597656 -14.414062 6.953125 -18.3125 C 6.304688 -22.21875 5.828125 -26.007812 5.515625 -29.6875 C 5.210938 -33.375 4.992188 -36.753906 4.859375 -39.828125 C 4.734375 -42.910156 4.671875 -45.1875 4.671875 -46.65625 C 4.671875 -48.300781 4.734375 -50.679688 4.859375 -53.796875 C 4.992188 -56.921875 5.28125 -60.300781 5.71875 -63.9375 C 6.15625 -67.570312 6.738281 -71.273438 7.46875 -75.046875 C 8.207031 -78.816406 9.179688 -82.238281 10.390625 -85.3125 C 11.609375 -88.394531 13.0625 -90.910156 14.75 -92.859375 C 16.4375 -94.804688 18.453125 -95.78125 20.796875 -95.78125 C 22.703125 -95.78125 24.148438 -95.148438 25.140625 -93.890625 C 26.140625 -92.640625 26.851562 -91.125 27.28125 -89.34375 C 27.71875 -87.570312 27.976562 -85.707031 28.0625 -83.75 C 28.15625 -81.800781 28.203125 -80.132812 28.203125 -78.75 Z M 28.203125 -78.75 "/></g></g></g><g fill="#ff3131" fill-opacity="1"><g transform="translate(864.906029, 669.847748)"><g><path d="M 28.59375 3.765625 C 24.175781 3.765625 20.320312 2.59375 17.03125 0.25 C 13.738281 -2.082031 10.960938 -5.066406 8.703125 -8.703125 C 6.453125 -12.347656 4.765625 -16.398438 3.640625 -20.859375 C 2.515625 -25.316406 1.953125 -29.710938 1.953125 -34.046875 C 1.953125 -38.640625 2.515625 -43.382812 3.640625 -48.28125 C 4.765625 -53.175781 6.492188 -57.632812 8.828125 -61.65625 C 11.171875 -65.6875 14.160156 -68.976562 17.796875 -71.53125 C 21.441406 -74.09375 25.773438 -75.375 30.796875 -75.375 C 35.648438 -75.375 39.785156 -74.050781 43.203125 -71.40625 C 46.628906 -68.769531 49.378906 -65.476562 51.453125 -61.53125 C 53.535156 -57.59375 55.007812 -53.285156 55.875 -48.609375 C 56.75 -43.929688 57.054688 -39.507812 56.796875 -35.34375 C 56.535156 -30.757812 55.816406 -26.125 54.640625 -21.4375 C 53.472656 -16.757812 51.765625 -12.554688 49.515625 -8.828125 C 47.265625 -5.109375 44.40625 -2.082031 40.9375 0.25 C 37.46875 2.59375 33.351562 3.765625 28.59375 3.765625 Z M 29.890625 -54.96875 C 28.585938 -54.96875 27.4375 -54.273438 26.4375 -52.890625 C 25.445312 -51.503906 24.625 -49.8125 23.96875 -47.8125 C 23.320312 -45.820312 22.828125 -43.722656 22.484375 -41.515625 C 22.140625 -39.304688 21.96875 -37.378906 21.96875 -35.734375 C 21.96875 -33.660156 22.160156 -31.410156 22.546875 -28.984375 C 22.929688 -26.554688 23.472656 -24.320312 24.171875 -22.28125 C 24.867188 -20.25 25.710938 -18.5625 26.703125 -17.21875 C 27.703125 -15.875 28.851562 -15.203125 30.15625 -15.203125 C 31.539062 -15.203125 32.726562 -15.851562 33.71875 -17.15625 C 34.71875 -18.457031 35.519531 -20.101562 36.125 -22.09375 C 36.726562 -24.082031 37.160156 -26.269531 37.421875 -28.65625 C 37.679688 -31.039062 37.8125 -33.269531 37.8125 -35.34375 C 37.8125 -37.25 37.640625 -39.347656 37.296875 -41.640625 C 36.953125 -43.941406 36.453125 -46.085938 35.796875 -48.078125 C 35.148438 -50.078125 34.328125 -51.722656 33.328125 -53.015625 C 32.335938 -54.316406 31.191406 -54.96875 29.890625 -54.96875 Z M 29.890625 -54.96875 "/></g></g></g><g fill="#ff3131" fill-opacity="1"><g transform="translate(924.426458, 669.847748)"><g><path d="M 41.984375 -71.484375 C 41.984375 -68.960938 41.132812 -67.09375 39.4375 -65.875 C 37.75 -64.664062 35.863281 -63.519531 33.78125 -62.4375 C 31.707031 -61.363281 29.828125 -60.085938 28.140625 -58.609375 C 26.453125 -57.140625 25.609375 -54.929688 25.609375 -51.984375 C 25.609375 -50.421875 25.972656 -49.078125 26.703125 -47.953125 C 27.441406 -46.828125 28.351562 -45.804688 29.4375 -44.890625 C 30.519531 -43.984375 31.707031 -43.050781 33 -42.09375 C 34.300781 -41.144531 35.492188 -40.0625 36.578125 -38.84375 C 37.660156 -37.632812 38.570312 -36.164062 39.3125 -34.4375 C 40.050781 -32.707031 40.421875 -30.585938 40.421875 -28.078125 C 40.421875 -24.429688 39.488281 -20.851562 37.625 -17.34375 C 35.757812 -13.84375 33.375 -10.726562 30.46875 -8 C 27.570312 -5.269531 24.300781 -3.078125 20.65625 -1.421875 C 17.019531 0.222656 13.425781 1.046875 9.875 1.046875 C 8.40625 1.046875 6.929688 0.9375 5.453125 0.71875 C 3.984375 0.5 2.660156 0.0859375 1.484375 -0.515625 C 0.316406 -1.117188 -0.648438 -1.960938 -1.421875 -3.046875 C -2.203125 -4.128906 -2.59375 -5.539062 -2.59375 -7.28125 C -2.59375 -9.707031 -2.113281 -11.585938 -1.15625 -12.921875 C -0.207031 -14.265625 1 -15.328125 2.46875 -16.109375 C 3.9375 -16.890625 5.515625 -17.492188 7.203125 -17.921875 C 8.898438 -18.359375 10.484375 -18.898438 11.953125 -19.546875 C 13.429688 -20.203125 14.644531 -21.050781 15.59375 -22.09375 C 16.550781 -23.132812 17.03125 -24.609375 17.03125 -26.515625 C 17.03125 -28.328125 16.3125 -30.207031 14.875 -32.15625 C 13.445312 -34.113281 11.863281 -36.195312 10.125 -38.40625 C 8.394531 -40.613281 6.816406 -42.972656 5.390625 -45.484375 C 3.960938 -47.992188 3.25 -50.765625 3.25 -53.796875 C 3.25 -57.523438 4.003906 -60.96875 5.515625 -64.125 C 7.035156 -67.289062 9.070312 -70.039062 11.625 -72.375 C 14.1875 -74.71875 17.113281 -76.5625 20.40625 -77.90625 C 23.695312 -79.25 27.160156 -79.921875 30.796875 -79.921875 C 32.179688 -79.921875 33.546875 -79.789062 34.890625 -79.53125 C 36.234375 -79.269531 37.425781 -78.816406 38.46875 -78.171875 C 39.507812 -77.523438 40.351562 -76.660156 41 -75.578125 C 41.65625 -74.492188 41.984375 -73.128906 41.984375 -71.484375 Z M 41.984375 -71.484375 "/></g></g></g><g fill="#ff3131" fill-opacity="1"><g transform="translate(967.702223, 669.847748)"><g><path d="M 58.359375 -23.125 C 58.359375 -20.1875 57.425781 -17.304688 55.5625 -14.484375 C 53.695312 -11.671875 51.351562 -9.160156 48.53125 -6.953125 C 45.71875 -4.742188 42.707031 -2.96875 39.5 -1.625 C 36.300781 -0.28125 33.359375 0.390625 30.671875 0.390625 C 26.078125 0.390625 21.984375 -0.753906 18.390625 -3.046875 C 14.796875 -5.347656 11.785156 -8.273438 9.359375 -11.828125 C 6.929688 -15.378906 5.085938 -19.296875 3.828125 -23.578125 C 2.578125 -27.867188 1.953125 -32.050781 1.953125 -36.125 C 1.953125 -40.457031 2.554688 -45.09375 3.765625 -50.03125 C 4.984375 -54.96875 6.828125 -59.515625 9.296875 -63.671875 C 11.765625 -67.835938 14.878906 -71.304688 18.640625 -74.078125 C 22.410156 -76.847656 26.894531 -78.234375 32.09375 -78.234375 C 35.039062 -78.234375 37.859375 -77.734375 40.546875 -76.734375 C 43.234375 -75.742188 45.570312 -74.335938 47.5625 -72.515625 C 49.550781 -70.691406 51.148438 -68.523438 52.359375 -66.015625 C 53.578125 -63.503906 54.1875 -60.691406 54.1875 -57.578125 C 54.1875 -53.503906 53.320312 -49.691406 51.59375 -46.140625 C 49.863281 -42.585938 47.566406 -39.507812 44.703125 -36.90625 C 41.847656 -34.3125 38.554688 -32.210938 34.828125 -30.609375 C 31.097656 -29.003906 27.285156 -28.113281 23.390625 -27.9375 C 23.734375 -25.425781 24.75 -23.609375 26.4375 -22.484375 C 28.132812 -21.359375 30.148438 -20.796875 32.484375 -20.796875 C 34.222656 -20.796875 35.914062 -21.226562 37.5625 -22.09375 C 39.207031 -22.957031 40.804688 -23.929688 42.359375 -25.015625 C 43.921875 -26.097656 45.457031 -27.070312 46.96875 -27.9375 C 48.488281 -28.800781 50.03125 -29.234375 51.59375 -29.234375 C 53.320312 -29.234375 54.878906 -28.671875 56.265625 -27.546875 C 57.660156 -26.421875 58.359375 -24.945312 58.359375 -23.125 Z M 37.296875 -54.96875 C 37.296875 -56.09375 36.992188 -57.257812 36.390625 -58.46875 C 35.785156 -59.6875 34.832031 -60.296875 33.53125 -60.296875 C 31.625 -60.296875 30.019531 -59.796875 28.71875 -58.796875 C 27.414062 -57.804688 26.332031 -56.550781 25.46875 -55.03125 C 24.601562 -53.519531 23.929688 -51.894531 23.453125 -50.15625 C 22.984375 -48.425781 22.703125 -46.828125 22.609375 -45.359375 C 23.828125 -45.617188 25.28125 -45.960938 26.96875 -46.390625 C 28.65625 -46.828125 30.253906 -47.410156 31.765625 -48.140625 C 33.285156 -48.878906 34.585938 -49.8125 35.671875 -50.9375 C 36.753906 -52.070312 37.296875 -53.414062 37.296875 -54.96875 Z M 37.296875 -54.96875 "/></g></g></g><g fill="#ff3131" fill-opacity="1"><g transform="translate(1027.352622, 669.847748)"><g><path d="M 28.203125 -54.453125 C 28.203125 -53.066406 28.113281 -51.179688 27.9375 -48.796875 C 27.769531 -46.410156 27.507812 -43.851562 27.15625 -41.125 C 26.8125 -38.394531 26.3125 -35.625 25.65625 -32.8125 C 25.007812 -30 24.253906 -27.441406 23.390625 -25.140625 C 22.523438 -22.847656 21.484375 -20.988281 20.265625 -19.5625 C 19.054688 -18.132812 17.671875 -17.421875 16.109375 -17.421875 C 14.203125 -17.421875 12.578125 -18.347656 11.234375 -20.203125 C 9.898438 -22.066406 8.773438 -24.445312 7.859375 -27.34375 C 6.953125 -30.25 6.238281 -33.476562 5.71875 -37.03125 C 5.195312 -40.582031 4.804688 -44.070312 4.546875 -47.5 C 4.285156 -50.925781 4.132812 -54.085938 4.09375 -56.984375 C 4.050781 -59.890625 4.03125 -62.125 4.03125 -63.6875 C 4.03125 -65.238281 4.03125 -67.207031 4.03125 -69.59375 C 4.03125 -71.976562 4.132812 -74.507812 4.34375 -77.1875 C 4.5625 -79.875 4.910156 -82.539062 5.390625 -85.1875 C 5.867188 -87.832031 6.582031 -90.238281 7.53125 -92.40625 C 8.488281 -94.570312 9.742188 -96.320312 11.296875 -97.65625 C 12.859375 -99 14.8125 -99.671875 17.15625 -99.671875 C 19.238281 -99.671875 20.945312 -98.78125 22.28125 -97 C 23.625 -95.226562 24.707031 -92.9375 25.53125 -90.125 C 26.351562 -87.3125 26.957031 -84.171875 27.34375 -80.703125 C 27.738281 -77.234375 28 -73.832031 28.125 -70.5 C 28.257812 -67.164062 28.304688 -64.066406 28.265625 -61.203125 C 28.222656 -58.347656 28.203125 -56.097656 28.203125 -54.453125 Z M 25.734375 -5.0625 C 25.734375 -3.59375 25.382812 -2.316406 24.6875 -1.234375 C 24 -0.148438 23.09375 0.753906 21.96875 1.484375 C 20.84375 2.222656 19.628906 2.765625 18.328125 3.109375 C 17.023438 3.460938 15.722656 3.640625 14.421875 3.640625 C 12.515625 3.640625 10.695312 3.140625 8.96875 2.140625 C 7.238281 1.148438 6.375 -0.425781 6.375 -2.59375 C 6.375 -3.894531 6.738281 -5.085938 7.46875 -6.171875 C 8.207031 -7.253906 9.140625 -8.1875 10.265625 -8.96875 C 11.390625 -9.75 12.625 -10.351562 13.96875 -10.78125 C 15.3125 -11.21875 16.585938 -11.4375 17.796875 -11.4375 C 19.796875 -11.4375 21.617188 -10.9375 23.265625 -9.9375 C 24.910156 -8.945312 25.734375 -7.320312 25.734375 -5.0625 Z M 25.734375 -5.0625 "/></g></g></g><g fill="#ff3131" fill-opacity="1"><g transform="translate(1059.582015, 669.847748)"><g><path d="M 28.203125 -54.453125 C 28.203125 -53.066406 28.113281 -51.179688 27.9375 -48.796875 C 27.769531 -46.410156 27.507812 -43.851562 27.15625 -41.125 C 26.8125 -38.394531 26.3125 -35.625 25.65625 -32.8125 C 25.007812 -30 24.253906 -27.441406 23.390625 -25.140625 C 22.523438 -22.847656 21.484375 -20.988281 20.265625 -19.5625 C 19.054688 -18.132812 17.671875 -17.421875 16.109375 -17.421875 C 14.203125 -17.421875 12.578125 -18.347656 11.234375 -20.203125 C 9.898438 -22.066406 8.773438 -24.445312 7.859375 -27.34375 C 6.953125 -30.25 6.238281 -33.476562 5.71875 -37.03125 C 5.195312 -40.582031 4.804688 -44.070312 4.546875 -47.5 C 4.285156 -50.925781 4.132812 -54.085938 4.09375 -56.984375 C 4.050781 -59.890625 4.03125 -62.125 4.03125 -63.6875 C 4.03125 -65.238281 4.03125 -67.207031 4.03125 -69.59375 C 4.03125 -71.976562 4.132812 -74.507812 4.34375 -77.1875 C 4.5625 -79.875 4.910156 -82.539062 5.390625 -85.1875 C 5.867188 -87.832031 6.582031 -90.238281 7.53125 -92.40625 C 8.488281 -94.570312 9.742188 -96.320312 11.296875 -97.65625 C 12.859375 -99 14.8125 -99.671875 17.15625 -99.671875 C 19.238281 -99.671875 20.945312 -98.78125 22.28125 -97 C 23.625 -95.226562 24.707031 -92.9375 25.53125 -90.125 C 26.351562 -87.3125 26.957031 -84.171875 27.34375 -80.703125 C 27.738281 -77.234375 28 -73.832031 28.125 -70.5 C 28.257812 -67.164062 28.304688 -64.066406 28.265625 -61.203125 C 28.222656 -58.347656 28.203125 -56.097656 28.203125 -54.453125 Z M 25.734375 -5.0625 C 25.734375 -3.59375 25.382812 -2.316406 24.6875 -1.234375 C 24 -0.148438 23.09375 0.753906 21.96875 1.484375 C 20.84375 2.222656 19.628906 2.765625 18.328125 3.109375 C 17.023438 3.460938 15.722656 3.640625 14.421875 3.640625 C 12.515625 3.640625 10.695312 3.140625 8.96875 2.140625 C 7.238281 1.148438 6.375 -0.425781 6.375 -2.59375 C 6.375 -3.894531 6.738281 -5.085938 7.46875 -6.171875 C 8.207031 -7.253906 9.140625 -8.1875 10.265625 -8.96875 C 11.390625 -9.75 12.625 -10.351562 13.96875 -10.78125 C 15.3125 -11.21875 16.585938 -11.4375 17.796875 -11.4375 C 19.796875 -11.4375 21.617188 -10.9375 23.265625 -9.9375 C 24.910156 -8.945312 25.734375 -7.320312 25.734375 -5.0625 Z M 25.734375 -5.0625 "/></g></g></g><g fill="#ff3131" fill-opacity="1"><g transform="translate(1091.811408, 669.847748)"><g><path d="M 28.203125 -54.453125 C 28.203125 -53.066406 28.113281 -51.179688 27.9375 -48.796875 C 27.769531 -46.410156 27.507812 -43.851562 27.15625 -41.125 C 26.8125 -38.394531 26.3125 -35.625 25.65625 -32.8125 C 25.007812 -30 24.253906 -27.441406 23.390625 -25.140625 C 22.523438 -22.847656 21.484375 -20.988281 20.265625 -19.5625 C 19.054688 -18.132812 17.671875 -17.421875 16.109375 -17.421875 C 14.203125 -17.421875 12.578125 -18.347656 11.234375 -20.203125 C 9.898438 -22.066406 8.773438 -24.445312 7.859375 -27.34375 C 6.953125 -30.25 6.238281 -33.476562 5.71875 -37.03125 C 5.195312 -40.582031 4.804688 -44.070312 4.546875 -47.5 C 4.285156 -50.925781 4.132812 -54.085938 4.09375 -56.984375 C 4.050781 -59.890625 4.03125 -62.125 4.03125 -63.6875 C 4.03125 -65.238281 4.03125 -67.207031 4.03125 -69.59375 C 4.03125 -71.976562 4.132812 -74.507812 4.34375 -77.1875 C 4.5625 -79.875 4.910156 -82.539062 5.390625 -85.1875 C 5.867188 -87.832031 6.582031 -90.238281 7.53125 -92.40625 C 8.488281 -94.570312 9.742188 -96.320312 11.296875 -97.65625 C 12.859375 -99 14.8125 -99.671875 17.15625 -99.671875 C 19.238281 -99.671875 20.945312 -98.78125 22.28125 -97 C 23.625 -95.226562 24.707031 -92.9375 25.53125 -90.125 C 26.351562 -87.3125 26.957031 -84.171875 27.34375 -80.703125 C 27.738281 -77.234375 28 -73.832031 28.125 -70.5 C 28.257812 -67.164062 28.304688 -64.066406 28.265625 -61.203125 C 28.222656 -58.347656 28.203125 -56.097656 28.203125 -54.453125 Z M 25.734375 -5.0625 C 25.734375 -3.59375 25.382812 -2.316406 24.6875 -1.234375 C 24 -0.148438 23.09375 0.753906 21.96875 1.484375 C 20.84375 2.222656 19.628906 2.765625 18.328125 3.109375 C 17.023438 3.460938 15.722656 3.640625 14.421875 3.640625 C 12.515625 3.640625 10.695312 3.140625 8.96875 2.140625 C 7.238281 1.148438 6.375 -0.425781 6.375 -2.59375 C 6.375 -3.894531 6.738281 -5.085938 7.46875 -6.171875 C 8.207031 -7.253906 9.140625 -8.1875 10.265625 -8.96875 C 11.390625 -9.75 12.625 -10.351562 13.96875 -10.78125 C 15.3125 -11.21875 16.585938 -11.4375 17.796875 -11.4375 C 19.796875 -11.4375 21.617188 -10.9375 23.265625 -9.9375 C 24.910156 -8.945312 25.734375 -7.320312 25.734375 -5.0625 Z M 25.734375 -5.0625 "/></g></g></g></svg>