<svg xmlns="http://www.w3.org/2000/svg" xmlns:xlink="http://www.w3.org/1999/xlink" width="1920" zoomAndPan="magnify" viewBox="0 0 1440 809.999993" height="1080" preserveAspectRatio="xMidYMid meet" version="1.0"><defs><g/><clipPath id="a3ecf0364b"><path d="M 782 43.476562 L 887 43.476562 L 887 341 L 782 341 Z M 782 43.476562 " clip-rule="nonzero"/></clipPath><clipPath id="79ef20321e"><path d="M 509.355469 398 L 752 398 L 752 542.316406 L 509.355469 542.316406 Z M 509.355469 398 " clip-rule="nonzero"/></clipPath></defs><path fill="#000000" d="M 820.011719 310.679688 C 818.332031 312.03125 811.386719 310.679688 811.386719 310.679688 L 811.386719 45.261719 C 811.386719 45.261719 818.484375 43.742188 820.011719 45.261719 C 866.945312 92.179688 871.636719 268.976562 820.011719 310.679688 Z M 820.011719 310.679688 " fill-opacity="1" fill-rule="nonzero"/><g clip-path="url(#a3ecf0364b)"><path stroke-linecap="butt" transform="matrix(5.525351, 0, 0, 5.524241, 443.825456, 16.959857)" fill="none" stroke-linejoin="miter" d="M 68.083686 53.169264 C 67.77969 53.413925 66.522699 53.169264 66.522699 53.169264 L 66.522699 5.123213 C 66.522699 5.123213 67.807261 4.848147 68.083686 5.123213 C 76.577914 13.616319 77.426984 45.62015 68.083686 53.169264 Z M 68.083686 53.169264 " stroke="#000000" stroke-width="0.374" stroke-opacity="1" stroke-miterlimit="10"/></g><path fill="#000000" d="M 891.949219 336.714844 L 811.394531 336.714844 L 811.394531 332.582031 L 891.949219 332.582031 C 895.054688 332.582031 897.242188 331.710938 898.632812 329.925781 C 901.296875 326.503906 900.5 320.289062 899.972656 318.1875 C 898.6875 313.214844 868.527344 196.035156 866.707031 186.367188 C 865.277344 178.738281 857.601562 179.917969 857.269531 179.976562 L 856.597656 175.890625 C 860.746094 175.203125 869.039062 176.351562 870.773438 185.605469 C 872.558594 195.132812 903.660156 315.9375 903.976562 317.15625 C 904.074219 317.554688 906.332031 326.765625 901.894531 332.464844 C 899.699219 335.289062 896.351562 336.714844 891.949219 336.714844 Z M 891.949219 336.714844 " fill-opacity="1" fill-rule="nonzero"/><path fill="#000000" d="M 776.464844 331.738281 L 776.546875 333.800781 L 728.5 335.679688 L 728.417969 333.617188 Z M 776.464844 331.738281 " fill-opacity="1" fill-rule="nonzero"/><path fill="#000000" d="M 778.90625 334.195312 C 778.90625 334.515625 778.84375 334.820312 778.722656 335.117188 C 778.597656 335.410156 778.425781 335.671875 778.199219 335.898438 C 777.972656 336.125 777.710938 336.296875 777.417969 336.421875 C 777.121094 336.542969 776.816406 336.601562 776.496094 336.601562 C 776.175781 336.601562 775.867188 336.542969 775.574219 336.421875 C 775.277344 336.296875 775.019531 336.125 774.792969 335.898438 C 774.566406 335.671875 774.390625 335.410156 774.269531 335.117188 C 774.148438 334.820312 774.085938 334.515625 774.085938 334.195312 C 774.085938 333.875 774.148438 333.566406 774.269531 333.273438 C 774.390625 332.976562 774.566406 332.71875 774.792969 332.492188 C 775.019531 332.265625 775.277344 332.09375 775.574219 331.96875 C 775.867188 331.847656 776.175781 331.785156 776.496094 331.785156 C 776.816406 331.785156 777.121094 331.847656 777.417969 331.96875 C 777.710938 332.09375 777.972656 332.265625 778.199219 332.492188 C 778.425781 332.71875 778.597656 332.976562 778.722656 333.273438 C 778.84375 333.566406 778.90625 333.875 778.90625 334.195312 Z M 778.90625 334.195312 " fill-opacity="1" fill-rule="nonzero"/><path fill="#000000" d="M 667.644531 150.589844 C 667.644531 152.128906 667.570312 153.660156 667.421875 155.1875 C 667.269531 156.71875 667.042969 158.234375 666.746094 159.742188 C 666.445312 161.246094 666.074219 162.734375 665.625 164.207031 C 665.179688 165.675781 664.664062 167.121094 664.074219 168.539062 C 663.488281 169.957031 662.832031 171.34375 662.105469 172.699219 C 661.382812 174.054688 660.59375 175.371094 659.742188 176.648438 C 658.886719 177.925781 657.972656 179.15625 657 180.34375 C 656.023438 181.53125 654.992188 182.667969 653.90625 183.753906 C 652.820312 184.839844 651.683594 185.871094 650.496094 186.847656 C 649.308594 187.820312 648.074219 188.734375 646.796875 189.585938 C 645.519531 190.441406 644.203125 191.230469 642.847656 191.953125 C 641.496094 192.679688 640.105469 193.335938 638.6875 193.921875 C 637.269531 194.507812 635.824219 195.027344 634.351562 195.472656 C 632.882812 195.917969 631.394531 196.292969 629.886719 196.589844 C 628.382812 196.890625 626.863281 197.117188 625.335938 197.265625 C 623.804688 197.417969 622.273438 197.492188 620.734375 197.492188 C 619.199219 197.492188 617.667969 197.417969 616.136719 197.265625 C 614.609375 197.117188 613.089844 196.890625 611.585938 196.589844 C 610.078125 196.292969 608.589844 195.917969 607.117188 195.472656 C 605.648438 195.027344 604.203125 194.507812 602.785156 193.921875 C 601.363281 193.335938 599.976562 192.679688 598.621094 191.953125 C 597.269531 191.230469 595.953125 190.441406 594.675781 189.585938 C 593.398438 188.734375 592.164062 187.820312 590.976562 186.847656 C 589.789062 185.871094 588.652344 184.839844 587.566406 183.753906 C 586.480469 182.667969 585.449219 181.53125 584.472656 180.34375 C 583.5 179.15625 582.585938 177.925781 581.730469 176.648438 C 580.878906 175.371094 580.089844 174.054688 579.363281 172.699219 C 578.640625 171.34375 577.984375 169.957031 577.398438 168.539062 C 576.808594 167.121094 576.292969 165.675781 575.847656 164.207031 C 575.398438 162.734375 575.027344 161.246094 574.726562 159.742188 C 574.425781 158.234375 574.203125 156.71875 574.050781 155.1875 C 573.902344 153.660156 573.824219 152.128906 573.824219 150.589844 C 573.824219 149.054688 573.902344 147.523438 574.050781 145.996094 C 574.203125 144.464844 574.425781 142.949219 574.726562 141.441406 C 575.027344 139.933594 575.398438 138.445312 575.847656 136.976562 C 576.292969 135.507812 576.808594 134.0625 577.398438 132.644531 C 577.984375 131.222656 578.640625 129.835938 579.363281 128.480469 C 580.089844 127.128906 580.878906 125.8125 581.730469 124.535156 C 582.585938 123.257812 583.5 122.023438 584.472656 120.835938 C 585.449219 119.648438 586.480469 118.511719 587.566406 117.425781 C 588.652344 116.339844 589.789062 115.3125 590.976562 114.335938 C 592.164062 113.363281 593.398438 112.449219 594.675781 111.59375 C 595.953125 110.742188 597.269531 109.953125 598.621094 109.226562 C 599.976562 108.503906 601.363281 107.847656 602.785156 107.261719 C 604.203125 106.671875 605.648438 106.15625 607.117188 105.710938 C 608.589844 105.265625 610.078125 104.890625 611.585938 104.589844 C 613.089844 104.292969 614.609375 104.066406 616.136719 103.917969 C 617.667969 103.765625 619.199219 103.691406 620.734375 103.691406 C 622.273438 103.691406 623.804688 103.765625 625.335938 103.917969 C 626.863281 104.066406 628.382812 104.292969 629.886719 104.589844 C 631.394531 104.890625 632.882812 105.265625 634.351562 105.710938 C 635.824219 106.15625 637.269531 106.671875 638.6875 107.261719 C 640.105469 107.847656 641.496094 108.503906 642.847656 109.226562 C 644.203125 109.953125 645.519531 110.742188 646.796875 111.59375 C 648.074219 112.449219 649.308594 113.363281 650.496094 114.335938 C 651.683594 115.3125 652.820312 116.339844 653.90625 117.425781 C 654.992188 118.511719 656.023438 119.648438 657 120.835938 C 657.972656 122.023438 658.886719 123.257812 659.742188 124.535156 C 660.59375 125.8125 661.382812 127.128906 662.105469 128.480469 C 662.832031 129.835938 663.488281 131.222656 664.074219 132.644531 C 664.664062 134.0625 665.179688 135.507812 665.625 136.976562 C 666.074219 138.445312 666.445312 139.933594 666.746094 141.441406 C 667.042969 142.949219 667.269531 144.464844 667.421875 145.996094 C 667.570312 147.523438 667.644531 149.054688 667.644531 150.589844 Z M 667.644531 150.589844 " fill-opacity="1" fill-rule="nonzero"/><path fill="#000000" d="M 628.300781 382.351562 C 626.128906 402.792969 607.796875 417.609375 587.339844 415.441406 L 577.058594 414.351562 C 556.609375 412.179688 541.789062 393.851562 543.960938 373.40625 L 560.21875 226.3125 C 562.386719 205.867188 580.722656 191.050781 601.175781 193.214844 L 611.460938 194.308594 C 631.910156 196.476562 646.726562 214.808594 644.554688 235.253906 Z M 628.300781 382.351562 " fill-opacity="1" fill-rule="nonzero"/><path fill="#000000" d="M 652.074219 308.898438 C 644.828125 310.332031 637.308594 306.75 633.976562 299.851562 L 600.050781 229.53125 C 596.078125 221.300781 599.53125 211.414062 607.761719 207.441406 C 616 203.46875 625.886719 206.921875 629.859375 215.152344 L 656.949219 271.300781 L 735.890625 238.050781 C 744.3125 234.5 754.019531 238.453125 757.566406 246.875 C 761.117188 255.292969 757.164062 265 748.738281 268.542969 L 655.296875 307.898438 C 654.246094 308.359375 653.164062 308.683594 652.074219 308.898438 Z M 652.074219 308.898438 " fill-opacity="1" fill-rule="nonzero"/><path fill="#000000" d="M 710.523438 393.296875 C 710.523438 405.578125 699.050781 415.527344 684.90625 415.527344 L 575.402344 415.527344 C 561.25 415.527344 545.640625 397.296875 545.640625 385.023438 L 549.78125 393.296875 C 549.78125 381.019531 561.25 371.070312 575.402344 371.070312 L 702.527344 371.070312 C 716.679688 371.070312 710.523438 381.023438 710.523438 393.296875 Z M 710.523438 393.296875 " fill-opacity="1" fill-rule="nonzero"/><path fill="#000000" d="M 741.78125 500.496094 C 743.679688 514.285156 735.816406 526.757812 724.21875 528.359375 C 712.617188 529.957031 701.671875 520.082031 699.769531 506.296875 L 684.972656 399.136719 C 683.066406 385.347656 690.929688 372.875 702.527344 371.273438 C 714.132812 369.671875 725.078125 379.550781 726.976562 393.335938 Z M 741.78125 500.496094 " fill-opacity="1" fill-rule="nonzero"/><path fill="#000000" d="M 533.125 430.933594 C 528.140625 430.933594 521.421875 429.902344 516.535156 425.246094 C 513.222656 422.097656 509.632812 416.097656 511.300781 405.429688 C 518.929688 356.546875 512.207031 205.503906 512.136719 203.984375 C 511.980469 200.558594 514.628906 197.65625 518.054688 197.503906 C 521.488281 197.332031 524.378906 200 524.535156 203.417969 C 524.816406 209.679688 531.386719 357.242188 523.5625 407.347656 C 522.886719 411.648438 523.40625 414.648438 525.09375 416.261719 C 527.9375 418.976562 534.667969 418.699219 537.304688 418.164062 C 537.691406 418.082031 538.082031 418.042969 538.480469 418.035156 L 661.925781 416.5625 C 665.359375 416.527344 668.164062 419.261719 668.210938 422.6875 C 668.25 426.113281 665.503906 428.925781 662.078125 428.96875 L 539.160156 430.4375 C 538.054688 430.625 535.851562 430.933594 533.125 430.933594 Z M 533.125 430.933594 " fill-opacity="1" fill-rule="nonzero"/><path fill="#000000" d="M 710.523438 336.601562 L 929.308594 336.601562 L 929.308594 344.878906 L 710.523438 344.878906 Z M 710.523438 336.601562 " fill-opacity="1" fill-rule="nonzero"/><path fill="#000000" d="M 714.699219 541.761719 C 714.164062 541.761719 713.621094 541.664062 713.101562 541.464844 C 711.09375 540.695312 710.167969 538.636719 711.054688 536.878906 L 808.167969 342.828125 C 808.78125 341.597656 810.152344 340.785156 811.691406 340.746094 C 813.246094 340.730469 814.660156 341.441406 815.359375 342.640625 L 928.875 536.695312 C 929.875 538.410156 929.101562 540.503906 927.144531 541.382812 C 925.175781 542.265625 922.785156 541.582031 921.785156 539.875 L 812.09375 352.351562 L 718.351562 539.679688 C 717.695312 540.984375 716.234375 541.761719 714.699219 541.761719 Z M 714.699219 541.761719 " fill-opacity="1" fill-rule="nonzero"/><path fill="#000000" d="M 590.746094 426.847656 L 599.746094 426.847656 L 599.746094 515.296875 L 590.746094 515.296875 Z M 590.746094 426.847656 " fill-opacity="1" fill-rule="nonzero"/><path fill="#000000" d="M 640.628906 532.507812 C 640.628906 533.117188 640.566406 533.71875 640.449219 534.316406 C 640.332031 534.910156 640.15625 535.488281 639.921875 536.050781 C 639.691406 536.613281 639.40625 537.144531 639.066406 537.648438 C 638.730469 538.15625 638.347656 538.621094 637.917969 539.050781 C 637.488281 539.480469 637.019531 539.867188 636.515625 540.203125 C 636.007812 540.539062 635.476562 540.824219 634.914062 541.058594 C 634.351562 541.289062 633.773438 541.464844 633.179688 541.585938 C 632.582031 541.703125 631.980469 541.761719 631.371094 541.761719 C 630.765625 541.761719 630.164062 541.703125 629.566406 541.585938 C 628.972656 541.464844 628.390625 541.289062 627.832031 541.058594 C 627.269531 540.824219 626.734375 540.539062 626.230469 540.203125 C 625.726562 539.867188 625.257812 539.480469 624.828125 539.050781 C 624.398438 538.621094 624.015625 538.15625 623.675781 537.648438 C 623.339844 537.144531 623.054688 536.613281 622.820312 536.050781 C 622.589844 535.488281 622.414062 534.910156 622.296875 534.316406 C 622.175781 533.71875 622.117188 533.117188 622.117188 532.507812 C 622.117188 531.902344 622.175781 531.300781 622.296875 530.703125 C 622.414062 530.109375 622.589844 529.53125 622.820312 528.96875 C 623.054688 528.40625 623.339844 527.875 623.675781 527.367188 C 624.015625 526.863281 624.398438 526.394531 624.828125 525.964844 C 625.257812 525.535156 625.726562 525.152344 626.230469 524.816406 C 626.734375 524.476562 627.269531 524.191406 627.832031 523.960938 C 628.390625 523.726562 628.972656 523.554688 629.566406 523.433594 C 630.164062 523.316406 630.765625 523.257812 631.371094 523.257812 C 631.980469 523.257812 632.582031 523.316406 633.179688 523.433594 C 633.773438 523.554688 634.351562 523.726562 634.914062 523.960938 C 635.476562 524.191406 636.007812 524.476562 636.515625 524.816406 C 637.019531 525.152344 637.488281 525.535156 637.917969 525.964844 C 638.347656 526.394531 638.730469 526.863281 639.066406 527.367188 C 639.40625 527.875 639.691406 528.40625 639.921875 528.96875 C 640.15625 529.53125 640.332031 530.109375 640.449219 530.703125 C 640.566406 531.300781 640.628906 531.902344 640.628906 532.507812 Z M 640.628906 532.507812 " fill-opacity="1" fill-rule="nonzero"/><path fill="#000000" d="M 654.472656 532.507812 C 654.472656 533.117188 654.414062 533.71875 654.296875 534.316406 C 654.175781 534.910156 654 535.492188 653.769531 536.050781 C 653.535156 536.613281 653.25 537.148438 652.914062 537.652344 C 652.574219 538.160156 652.191406 538.625 651.761719 539.054688 C 651.332031 539.484375 650.863281 539.871094 650.359375 540.207031 C 649.851562 540.546875 649.320312 540.832031 648.757812 541.0625 C 648.195312 541.296875 647.617188 541.472656 647.019531 541.589844 C 646.421875 541.707031 645.820312 541.769531 645.214844 541.769531 C 644.605469 541.769531 644.003906 541.707031 643.40625 541.589844 C 642.808594 541.472656 642.230469 541.296875 641.667969 541.0625 C 641.109375 540.832031 640.574219 540.546875 640.070312 540.207031 C 639.5625 539.871094 639.09375 539.484375 638.664062 539.054688 C 638.234375 538.625 637.851562 538.160156 637.511719 537.652344 C 637.175781 537.148438 636.890625 536.613281 636.65625 536.050781 C 636.425781 535.492188 636.25 534.910156 636.132812 534.316406 C 636.011719 533.71875 635.953125 533.117188 635.953125 532.507812 C 635.953125 531.902344 636.011719 531.300781 636.132812 530.703125 C 636.25 530.105469 636.425781 529.527344 636.65625 528.964844 C 636.890625 528.40625 637.175781 527.871094 637.511719 527.367188 C 637.851562 526.859375 638.234375 526.394531 638.664062 525.960938 C 639.09375 525.53125 639.5625 525.148438 640.070312 524.8125 C 640.574219 524.472656 641.109375 524.1875 641.667969 523.957031 C 642.230469 523.722656 642.808594 523.546875 643.40625 523.429688 C 644.003906 523.308594 644.605469 523.25 645.214844 523.25 C 645.820312 523.25 646.421875 523.308594 647.019531 523.429688 C 647.617188 523.546875 648.195312 523.722656 648.757812 523.957031 C 649.320312 524.1875 649.851562 524.472656 650.359375 524.8125 C 650.863281 525.148438 651.332031 525.53125 651.761719 525.960938 C 652.191406 526.394531 652.574219 526.859375 652.914062 527.367188 C 653.25 527.871094 653.535156 528.40625 653.769531 528.964844 C 654 529.527344 654.175781 530.105469 654.296875 530.703125 C 654.414062 531.300781 654.472656 531.902344 654.472656 532.507812 Z M 654.472656 532.507812 " fill-opacity="1" fill-rule="nonzero"/><path fill="#000000" d="M 571.683594 532.507812 C 571.683594 533.117188 571.621094 533.71875 571.503906 534.316406 C 571.386719 534.910156 571.210938 535.492188 570.976562 536.050781 C 570.746094 536.613281 570.460938 537.148438 570.121094 537.652344 C 569.785156 538.160156 569.398438 538.625 568.96875 539.054688 C 568.539062 539.484375 568.070312 539.871094 567.566406 540.207031 C 567.0625 540.546875 566.527344 540.832031 565.964844 541.0625 C 565.402344 541.296875 564.824219 541.472656 564.226562 541.589844 C 563.632812 541.707031 563.03125 541.769531 562.421875 541.769531 C 561.8125 541.769531 561.210938 541.707031 560.613281 541.589844 C 560.019531 541.472656 559.441406 541.296875 558.878906 541.0625 C 558.316406 540.832031 557.78125 540.546875 557.277344 540.207031 C 556.769531 539.871094 556.304688 539.484375 555.875 539.054688 C 555.445312 538.625 555.058594 538.160156 554.722656 537.652344 C 554.382812 537.148438 554.097656 536.613281 553.867188 536.050781 C 553.632812 535.492188 553.457031 534.910156 553.339844 534.316406 C 553.21875 533.71875 553.160156 533.117188 553.160156 532.507812 C 553.160156 531.902344 553.21875 531.300781 553.339844 530.703125 C 553.457031 530.105469 553.632812 529.527344 553.867188 528.964844 C 554.097656 528.40625 554.382812 527.871094 554.722656 527.367188 C 555.058594 526.859375 555.445312 526.394531 555.875 525.960938 C 556.304688 525.53125 556.769531 525.148438 557.277344 524.8125 C 557.78125 524.472656 558.316406 524.1875 558.878906 523.957031 C 559.441406 523.722656 560.019531 523.546875 560.613281 523.429688 C 561.210938 523.308594 561.8125 523.25 562.421875 523.25 C 563.03125 523.25 563.632812 523.308594 564.226562 523.429688 C 564.824219 523.546875 565.402344 523.722656 565.964844 523.957031 C 566.527344 524.1875 567.0625 524.472656 567.566406 524.8125 C 568.070312 525.148438 568.539062 525.53125 568.96875 525.960938 C 569.398438 526.394531 569.785156 526.859375 570.121094 527.367188 C 570.460938 527.871094 570.746094 528.40625 570.976562 528.964844 C 571.210938 529.527344 571.386719 530.105469 571.503906 530.703125 C 571.621094 531.300781 571.683594 531.902344 571.683594 532.507812 Z M 571.683594 532.507812 " fill-opacity="1" fill-rule="nonzero"/><path fill="#000000" d="M 559.046875 532.507812 C 559.046875 533.117188 558.984375 533.71875 558.867188 534.316406 C 558.75 534.910156 558.574219 535.492188 558.339844 536.050781 C 558.109375 536.613281 557.824219 537.148438 557.484375 537.652344 C 557.148438 538.160156 556.761719 538.625 556.332031 539.054688 C 555.902344 539.484375 555.433594 539.871094 554.929688 540.207031 C 554.425781 540.546875 553.890625 540.832031 553.328125 541.0625 C 552.765625 541.296875 552.1875 541.472656 551.589844 541.589844 C 550.996094 541.707031 550.394531 541.769531 549.785156 541.769531 C 549.175781 541.769531 548.574219 541.707031 547.976562 541.589844 C 547.382812 541.472656 546.804688 541.296875 546.242188 541.0625 C 545.679688 540.832031 545.144531 540.546875 544.640625 540.207031 C 544.132812 539.871094 543.667969 539.484375 543.238281 539.054688 C 542.808594 538.625 542.421875 538.160156 542.085938 537.652344 C 541.746094 537.148438 541.460938 536.613281 541.230469 536.050781 C 540.996094 535.492188 540.820312 534.910156 540.703125 534.316406 C 540.582031 533.71875 540.523438 533.117188 540.523438 532.507812 C 540.523438 531.902344 540.582031 531.300781 540.703125 530.703125 C 540.820312 530.105469 540.996094 529.527344 541.230469 528.964844 C 541.460938 528.40625 541.746094 527.871094 542.085938 527.367188 C 542.421875 526.859375 542.808594 526.394531 543.238281 525.960938 C 543.667969 525.53125 544.132812 525.148438 544.640625 524.8125 C 545.144531 524.472656 545.679688 524.1875 546.242188 523.957031 C 546.804688 523.722656 547.382812 523.546875 547.976562 523.429688 C 548.574219 523.308594 549.175781 523.25 549.785156 523.25 C 550.394531 523.25 550.996094 523.308594 551.589844 523.429688 C 552.1875 523.546875 552.765625 523.722656 553.328125 523.957031 C 553.890625 524.1875 554.425781 524.472656 554.929688 524.8125 C 555.433594 525.148438 555.902344 525.53125 556.332031 525.960938 C 556.761719 526.394531 557.148438 526.859375 557.484375 527.367188 C 557.824219 527.871094 558.109375 528.40625 558.339844 528.964844 C 558.574219 529.527344 558.75 530.105469 558.867188 530.703125 C 558.984375 531.300781 559.046875 531.902344 559.046875 532.507812 Z M 559.046875 532.507812 " fill-opacity="1" fill-rule="nonzero"/><path fill="#000000" d="M 559.039062 532.507812 L 595.601562 515.289062 L 634.421875 530.445312 " fill-opacity="1" fill-rule="nonzero"/><g clip-path="url(#79ef20321e)"><path stroke-linecap="butt" transform="matrix(5.525351, 0, 0, 5.524241, 443.825456, 16.959857)" fill="none" stroke-linejoin="miter" d="M 20.851817 93.324668 L 27.469043 90.207724 L 34.494898 92.951313 " stroke="#1a171b" stroke-width="1.498" stroke-opacity="1" stroke-miterlimit="10"/></g><g fill="#00bf63" fill-opacity="1"><g transform="translate(318.099094, 679.280062)"><g><path d="M 59.09375 -36.078125 C 59.09375 -32.523438 58.707031 -28.628906 57.9375 -24.390625 C 57.164062 -20.160156 55.875 -16.226562 54.0625 -12.59375 C 52.25 -8.957031 49.867188 -5.925781 46.921875 -3.5 C 43.972656 -1.082031 40.28125 0.125 35.84375 0.125 C 34.707031 0.125 33.535156 0.046875 32.328125 -0.109375 C 31.117188 -0.273438 29.96875 -0.5625 28.875 -0.96875 C 27.789062 -1.375 26.800781 -1.914062 25.90625 -2.59375 C 25.019531 -3.28125 24.335938 -4.191406 23.859375 -5.328125 L 22.765625 12.109375 C 22.679688 13.960938 22.617188 16.179688 22.578125 18.765625 C 22.535156 21.347656 22.210938 23.8125 21.609375 26.15625 C 21.003906 28.5 19.992188 30.492188 18.578125 32.140625 C 17.171875 33.796875 15.132812 34.625 12.46875 34.625 C 10.9375 34.625 9.644531 33.835938 8.59375 32.265625 C 7.539062 30.691406 6.710938 28.691406 6.109375 26.265625 C 5.503906 23.847656 5.039062 21.144531 4.71875 18.15625 C 4.394531 15.175781 4.191406 12.3125 4.109375 9.5625 C 4.035156 6.820312 4 4.320312 4 2.0625 C 4 -0.195312 4 -1.851562 4 -2.90625 C 4 -8.3125 3.957031 -13.695312 3.875 -19.0625 C 3.789062 -24.4375 3.75 -29.828125 3.75 -35.234375 C 3.75 -36.203125 3.75 -37.710938 3.75 -39.765625 C 3.75 -41.828125 3.828125 -44.066406 3.984375 -46.484375 C 4.148438 -48.910156 4.414062 -51.414062 4.78125 -54 C 5.144531 -56.582031 5.6875 -58.941406 6.40625 -61.078125 C 7.132812 -63.222656 8.0625 -64.957031 9.1875 -66.28125 C 10.320312 -67.613281 11.695312 -68.28125 13.3125 -68.28125 C 14.363281 -68.28125 15.3125 -67.976562 16.15625 -67.375 C 17.007812 -66.769531 17.738281 -66.003906 18.34375 -65.078125 C 18.945312 -64.148438 19.453125 -63.160156 19.859375 -62.109375 C 20.265625 -61.066406 20.585938 -60.097656 20.828125 -59.203125 C 23.328125 -62.023438 26.210938 -64.160156 29.484375 -65.609375 C 32.753906 -67.066406 36.242188 -67.796875 39.953125 -67.796875 C 43.828125 -67.796875 46.992188 -66.707031 49.453125 -64.53125 C 51.921875 -62.351562 53.859375 -59.648438 55.265625 -56.421875 C 56.679688 -53.191406 57.671875 -49.738281 58.234375 -46.0625 C 58.804688 -42.394531 59.09375 -39.066406 59.09375 -36.078125 Z M 41.765625 -37.046875 C 41.765625 -38.253906 41.664062 -39.484375 41.46875 -40.734375 C 41.269531 -41.992188 40.90625 -43.164062 40.375 -44.25 C 39.851562 -45.34375 39.109375 -46.234375 38.140625 -46.921875 C 37.171875 -47.609375 35.957031 -47.953125 34.5 -47.953125 C 32.5625 -47.953125 30.523438 -47.320312 28.390625 -46.0625 C 26.253906 -44.8125 24.660156 -43.378906 23.609375 -41.765625 C 23.203125 -41.117188 22.957031 -40.066406 22.875 -38.609375 C 22.800781 -37.160156 22.765625 -36.078125 22.765625 -35.359375 C 22.765625 -34.785156 22.785156 -34.035156 22.828125 -33.109375 C 22.867188 -32.179688 22.925781 -31.234375 23 -30.265625 C 23.082031 -29.296875 23.179688 -28.367188 23.296875 -27.484375 C 23.421875 -26.597656 23.609375 -25.910156 23.859375 -25.421875 C 24.097656 -24.703125 24.617188 -24.035156 25.421875 -23.421875 C 26.234375 -22.816406 27.125 -22.269531 28.09375 -21.78125 C 29.0625 -21.300781 30.046875 -20.941406 31.046875 -20.703125 C 32.054688 -20.460938 32.925781 -20.34375 33.65625 -20.34375 C 35.351562 -20.34375 36.722656 -20.988281 37.765625 -22.28125 C 38.816406 -23.570312 39.644531 -25.101562 40.25 -26.875 C 40.863281 -28.65625 41.269531 -30.492188 41.46875 -32.390625 C 41.664062 -34.285156 41.765625 -35.835938 41.765625 -37.046875 Z M 41.765625 -37.046875 "/></g></g><g transform="translate(380.942462, 679.280062)"><g><path d="M 54.359375 -21.546875 C 54.359375 -18.804688 53.488281 -16.125 51.75 -13.5 C 50.019531 -10.875 47.84375 -8.53125 45.21875 -6.46875 C 42.59375 -4.414062 39.785156 -2.765625 36.796875 -1.515625 C 33.816406 -0.265625 31.078125 0.359375 28.578125 0.359375 C 24.296875 0.359375 20.476562 -0.707031 17.125 -2.84375 C 13.78125 -4.976562 10.976562 -7.703125 8.71875 -11.015625 C 6.457031 -14.328125 4.738281 -17.976562 3.5625 -21.96875 C 2.394531 -25.96875 1.8125 -29.863281 1.8125 -33.65625 C 1.8125 -37.695312 2.375 -42.015625 3.5 -46.609375 C 4.632812 -51.210938 6.351562 -55.453125 8.65625 -59.328125 C 10.957031 -63.203125 13.863281 -66.429688 17.375 -69.015625 C 20.882812 -71.597656 25.0625 -72.890625 29.90625 -72.890625 C 32.644531 -72.890625 35.265625 -72.425781 37.765625 -71.5 C 40.273438 -70.570312 42.457031 -69.257812 44.3125 -67.5625 C 46.164062 -65.863281 47.65625 -63.84375 48.78125 -61.5 C 49.914062 -59.164062 50.484375 -56.546875 50.484375 -53.640625 C 50.484375 -49.847656 49.675781 -46.296875 48.0625 -42.984375 C 46.445312 -39.671875 44.304688 -36.800781 41.640625 -34.375 C 38.984375 -31.957031 35.921875 -30.003906 32.453125 -28.515625 C 28.984375 -27.023438 25.429688 -26.195312 21.796875 -26.03125 C 22.117188 -23.6875 23.066406 -21.988281 24.640625 -20.9375 C 26.210938 -19.894531 28.085938 -19.375 30.265625 -19.375 C 31.878906 -19.375 33.453125 -19.773438 34.984375 -20.578125 C 36.523438 -21.390625 38.019531 -22.300781 39.46875 -23.3125 C 40.925781 -24.320312 42.359375 -25.226562 43.765625 -26.03125 C 45.179688 -26.84375 46.613281 -27.25 48.0625 -27.25 C 49.675781 -27.25 51.128906 -26.722656 52.421875 -25.671875 C 53.710938 -24.617188 54.359375 -23.242188 54.359375 -21.546875 Z M 34.75 -51.21875 C 34.75 -52.269531 34.460938 -53.359375 33.890625 -54.484375 C 33.328125 -55.617188 32.441406 -56.1875 31.234375 -56.1875 C 29.460938 -56.1875 27.96875 -55.71875 26.75 -54.78125 C 25.539062 -53.851562 24.53125 -52.679688 23.71875 -51.265625 C 22.914062 -49.859375 22.289062 -48.347656 21.84375 -46.734375 C 21.40625 -45.117188 21.144531 -43.625 21.0625 -42.25 C 22.195312 -42.5 23.550781 -42.820312 25.125 -43.21875 C 26.695312 -43.625 28.1875 -44.171875 29.59375 -44.859375 C 31.007812 -45.546875 32.222656 -46.410156 33.234375 -47.453125 C 34.242188 -48.503906 34.75 -49.757812 34.75 -51.21875 Z M 34.75 -51.21875 "/></g></g><g transform="translate(436.520701, 679.280062)"><g><path d="M 45.640625 -45.28125 C 44.515625 -45.195312 43.546875 -45.296875 42.734375 -45.578125 C 41.929688 -45.867188 41.125 -46.175781 40.3125 -46.5 C 39.59375 -46.820312 38.867188 -47.125 38.140625 -47.40625 C 37.410156 -47.6875 36.601562 -47.785156 35.71875 -47.703125 C 34.101562 -47.617188 32.671875 -47.171875 31.421875 -46.359375 C 30.171875 -45.554688 29.039062 -44.550781 28.03125 -43.34375 C 27.019531 -42.132812 26.148438 -40.78125 25.421875 -39.28125 C 24.703125 -37.789062 24.140625 -36.320312 23.734375 -34.875 C 23.492188 -33.90625 23.3125 -32.429688 23.1875 -30.453125 C 23.0625 -28.472656 23 -26.351562 23 -24.09375 C 22.925781 -21.75 22.890625 -19.523438 22.890625 -17.421875 C 22.890625 -15.328125 22.804688 -13.675781 22.640625 -12.46875 C 22.554688 -11.175781 22.351562 -9.660156 22.03125 -7.921875 C 21.707031 -6.191406 21.203125 -4.554688 20.515625 -3.015625 C 19.835938 -1.484375 18.929688 -0.195312 17.796875 0.84375 C 16.671875 1.894531 15.21875 2.421875 13.4375 2.421875 C 12.0625 2.421875 10.867188 2.015625 9.859375 1.203125 C 8.859375 0.398438 8.015625 -0.664062 7.328125 -2 C 6.640625 -3.332031 6.070312 -4.882812 5.625 -6.65625 C 5.1875 -8.4375 4.84375 -10.253906 4.59375 -12.109375 C 4.351562 -14.046875 4.171875 -15.984375 4.046875 -17.921875 C 3.929688 -19.859375 3.851562 -21.691406 3.8125 -23.421875 C 3.769531 -25.160156 3.769531 -26.753906 3.8125 -28.203125 C 3.851562 -29.660156 3.875 -30.832031 3.875 -31.71875 C 3.789062 -34.539062 3.644531 -37.382812 3.4375 -40.25 C 3.238281 -43.125 3.140625 -45.972656 3.140625 -48.796875 C 3.140625 -50.566406 3.21875 -52.539062 3.375 -54.71875 C 3.539062 -56.90625 3.988281 -58.945312 4.71875 -60.84375 C 5.445312 -62.738281 6.515625 -64.332031 7.921875 -65.625 C 9.335938 -66.914062 11.296875 -67.5625 13.796875 -67.5625 C 15.171875 -67.5625 16.34375 -67.113281 17.3125 -66.21875 C 18.28125 -65.332031 19.066406 -64.242188 19.671875 -62.953125 C 20.273438 -61.671875 20.738281 -60.300781 21.0625 -58.84375 C 21.382812 -57.394531 21.585938 -56.0625 21.671875 -54.84375 C 23.609375 -58 25.785156 -60.5625 28.203125 -62.53125 C 30.628906 -64.507812 33.78125 -65.582031 37.65625 -65.75 C 39.59375 -65.820312 41.507812 -65.632812 43.40625 -65.1875 C 45.300781 -64.75 47.035156 -64.023438 48.609375 -63.015625 C 50.179688 -62.015625 51.472656 -60.707031 52.484375 -59.09375 C 53.492188 -57.476562 54.039062 -55.578125 54.125 -53.390625 C 54.28125 -50.804688 53.507812 -48.828125 51.8125 -47.453125 C 50.125 -46.085938 48.066406 -45.363281 45.640625 -45.28125 Z M 45.640625 -45.28125 "/></g></g><g transform="translate(488.829632, 679.280062)"><g><path d="M 54.359375 -72.40625 C 54.359375 -70.875 54.21875 -69.398438 53.9375 -67.984375 C 53.65625 -66.566406 53.148438 -65.332031 52.421875 -64.28125 C 51.703125 -63.238281 50.734375 -62.414062 49.515625 -61.8125 C 48.304688 -61.207031 46.816406 -60.90625 45.046875 -60.90625 C 43.023438 -60.90625 41.53125 -61.304688 40.5625 -62.109375 C 39.59375 -62.921875 38.925781 -63.910156 38.5625 -65.078125 C 38.195312 -66.242188 38.015625 -67.515625 38.015625 -68.890625 C 38.015625 -70.265625 37.953125 -71.535156 37.828125 -72.703125 C 37.710938 -73.878906 37.410156 -74.867188 36.921875 -75.671875 C 36.441406 -76.484375 35.554688 -76.890625 34.265625 -76.890625 C 33.054688 -76.890625 32.066406 -75.957031 31.296875 -74.09375 C 30.535156 -72.238281 29.910156 -70.097656 29.421875 -67.671875 C 28.941406 -65.253906 28.617188 -62.894531 28.453125 -60.59375 C 28.296875 -58.300781 28.21875 -56.75 28.21875 -55.9375 C 29.257812 -56.101562 30.265625 -56.242188 31.234375 -56.359375 C 32.203125 -56.484375 33.253906 -56.546875 34.390625 -56.546875 C 35.515625 -56.546875 36.679688 -56.421875 37.890625 -56.171875 C 39.109375 -55.929688 40.238281 -55.550781 41.28125 -55.03125 C 42.332031 -54.507812 43.179688 -53.78125 43.828125 -52.84375 C 44.472656 -51.914062 44.796875 -50.769531 44.796875 -49.40625 C 44.796875 -47.945312 44.171875 -46.648438 42.921875 -45.515625 C 41.671875 -44.390625 40.175781 -43.441406 38.4375 -42.671875 C 36.707031 -41.910156 34.953125 -41.285156 33.171875 -40.796875 C 31.398438 -40.316406 29.988281 -39.992188 28.9375 -39.828125 C 29.175781 -34.265625 29.296875 -28.65625 29.296875 -23 C 29.296875 -17.675781 29.175781 -12.429688 28.9375 -7.265625 C 28.78125 -4.765625 27.910156 -2.707031 26.328125 -1.09375 C 24.753906 0.519531 22.71875 1.328125 20.21875 1.328125 C 18.84375 1.328125 17.671875 1.066406 16.703125 0.546875 C 15.734375 0.0234375 14.925781 -0.675781 14.28125 -1.5625 C 13.632812 -2.457031 13.128906 -3.46875 12.765625 -4.59375 C 12.410156 -5.726562 12.191406 -6.898438 12.109375 -8.109375 C 11.703125 -12.953125 11.378906 -17.816406 11.140625 -22.703125 C 10.898438 -27.585938 10.816406 -32.488281 10.890625 -37.40625 C 10.328125 -37.332031 9.78125 -37.296875 9.25 -37.296875 C 8.726562 -37.296875 8.1875 -37.296875 7.625 -37.296875 C 6.65625 -37.296875 5.484375 -37.414062 4.109375 -37.65625 C 2.742188 -37.894531 1.4375 -38.316406 0.1875 -38.921875 C -1.0625 -39.523438 -2.128906 -40.269531 -3.015625 -41.15625 C -3.910156 -42.050781 -4.359375 -43.1875 -4.359375 -44.5625 C -4.359375 -46.332031 -3.769531 -47.820312 -2.59375 -49.03125 C -1.425781 -50.25 -0.0195312 -51.238281 1.625 -52 C 3.28125 -52.769531 5.015625 -53.316406 6.828125 -53.640625 C 8.648438 -53.960938 10.25 -54.203125 11.625 -54.359375 L 11.625 -56.296875 C 11.625 -60.253906 11.984375 -64.492188 12.703125 -69.015625 C 13.429688 -73.535156 14.722656 -77.734375 16.578125 -81.609375 C 18.441406 -85.484375 20.988281 -88.691406 24.21875 -91.234375 C 27.445312 -93.773438 31.5625 -95.046875 36.5625 -95.046875 C 39.707031 -95.046875 42.410156 -94.378906 44.671875 -93.046875 C 46.929688 -91.710938 48.785156 -89.976562 50.234375 -87.84375 C 51.691406 -85.707031 52.742188 -83.285156 53.390625 -80.578125 C 54.035156 -77.867188 54.359375 -75.144531 54.359375 -72.40625 Z M 54.359375 -72.40625 "/></g></g><g transform="translate(535.084288, 679.280062)"><g><path d="M 54.359375 -21.546875 C 54.359375 -18.804688 53.488281 -16.125 51.75 -13.5 C 50.019531 -10.875 47.84375 -8.53125 45.21875 -6.46875 C 42.59375 -4.414062 39.785156 -2.765625 36.796875 -1.515625 C 33.816406 -0.265625 31.078125 0.359375 28.578125 0.359375 C 24.296875 0.359375 20.476562 -0.707031 17.125 -2.84375 C 13.78125 -4.976562 10.976562 -7.703125 8.71875 -11.015625 C 6.457031 -14.328125 4.738281 -17.976562 3.5625 -21.96875 C 2.394531 -25.96875 1.8125 -29.863281 1.8125 -33.65625 C 1.8125 -37.695312 2.375 -42.015625 3.5 -46.609375 C 4.632812 -51.210938 6.351562 -55.453125 8.65625 -59.328125 C 10.957031 -63.203125 13.863281 -66.429688 17.375 -69.015625 C 20.882812 -71.597656 25.0625 -72.890625 29.90625 -72.890625 C 32.644531 -72.890625 35.265625 -72.425781 37.765625 -71.5 C 40.273438 -70.570312 42.457031 -69.257812 44.3125 -67.5625 C 46.164062 -65.863281 47.65625 -63.84375 48.78125 -61.5 C 49.914062 -59.164062 50.484375 -56.546875 50.484375 -53.640625 C 50.484375 -49.847656 49.675781 -46.296875 48.0625 -42.984375 C 46.445312 -39.671875 44.304688 -36.800781 41.640625 -34.375 C 38.984375 -31.957031 35.921875 -30.003906 32.453125 -28.515625 C 28.984375 -27.023438 25.429688 -26.195312 21.796875 -26.03125 C 22.117188 -23.6875 23.066406 -21.988281 24.640625 -20.9375 C 26.210938 -19.894531 28.085938 -19.375 30.265625 -19.375 C 31.878906 -19.375 33.453125 -19.773438 34.984375 -20.578125 C 36.523438 -21.390625 38.019531 -22.300781 39.46875 -23.3125 C 40.925781 -24.320312 42.359375 -25.226562 43.765625 -26.03125 C 45.179688 -26.84375 46.613281 -27.25 48.0625 -27.25 C 49.675781 -27.25 51.128906 -26.722656 52.421875 -25.671875 C 53.710938 -24.617188 54.359375 -23.242188 54.359375 -21.546875 Z M 34.75 -51.21875 C 34.75 -52.269531 34.460938 -53.359375 33.890625 -54.484375 C 33.328125 -55.617188 32.441406 -56.1875 31.234375 -56.1875 C 29.460938 -56.1875 27.96875 -55.71875 26.75 -54.78125 C 25.539062 -53.851562 24.53125 -52.679688 23.71875 -51.265625 C 22.914062 -49.859375 22.289062 -48.347656 21.84375 -46.734375 C 21.40625 -45.117188 21.144531 -43.625 21.0625 -42.25 C 22.195312 -42.5 23.550781 -42.820312 25.125 -43.21875 C 26.695312 -43.625 28.1875 -44.171875 29.59375 -44.859375 C 31.007812 -45.546875 32.222656 -46.410156 33.234375 -47.453125 C 34.242188 -48.503906 34.75 -49.757812 34.75 -51.21875 Z M 34.75 -51.21875 "/></g></g><g transform="translate(590.662527, 679.280062)"><g><path d="M 48.546875 -46.5 C 48.546875 -46.09375 48.503906 -45.664062 48.421875 -45.21875 C 48.347656 -44.78125 48.226562 -44.359375 48.0625 -43.953125 C 47.34375 -42.097656 46.210938 -40.539062 44.671875 -39.28125 C 43.140625 -38.03125 41.328125 -37.40625 39.234375 -37.40625 C 36.078125 -37.40625 33.9375 -38.984375 32.8125 -42.140625 C 32.644531 -42.535156 32.5625 -42.992188 32.5625 -43.515625 C 32.5625 -44.046875 32.523438 -44.59375 32.453125 -45.15625 L 32.453125 -48.671875 C 32.285156 -49.804688 32 -50.695312 31.59375 -51.34375 C 31.195312 -51.988281 30.515625 -52.3125 29.546875 -52.3125 C 28.171875 -52.3125 26.859375 -51.441406 25.609375 -49.703125 C 24.359375 -47.960938 23.269531 -45.898438 22.34375 -43.515625 C 21.414062 -41.140625 20.664062 -38.703125 20.09375 -36.203125 C 19.53125 -33.703125 19.25 -31.6875 19.25 -30.15625 C 19.25 -28.9375 19.328125 -27.457031 19.484375 -25.71875 C 19.648438 -23.988281 19.972656 -22.316406 20.453125 -20.703125 C 20.941406 -19.085938 21.609375 -17.691406 22.453125 -16.515625 C 23.304688 -15.347656 24.421875 -14.765625 25.796875 -14.765625 C 27.160156 -14.765625 28.425781 -15.1875 29.59375 -16.03125 C 30.769531 -16.882812 31.921875 -17.878906 33.046875 -19.015625 C 34.097656 -19.984375 35.25 -20.988281 36.5 -22.03125 C 37.75 -23.082031 39.179688 -23.609375 40.796875 -23.609375 C 42.816406 -23.609375 44.410156 -22.878906 45.578125 -21.421875 C 46.753906 -19.972656 47.34375 -18.320312 47.34375 -16.46875 C 47.34375 -13.71875 46.613281 -11.148438 45.15625 -8.765625 C 43.707031 -6.390625 41.890625 -4.332031 39.703125 -2.59375 C 37.523438 -0.863281 35.101562 0.503906 32.4375 1.515625 C 29.78125 2.523438 27.242188 3.03125 24.828125 3.03125 C 20.460938 3.03125 16.765625 1.941406 13.734375 -0.234375 C 10.710938 -2.421875 8.269531 -5.1875 6.40625 -8.53125 C 4.550781 -11.882812 3.21875 -15.535156 2.40625 -19.484375 C 1.601562 -23.441406 1.203125 -27.195312 1.203125 -30.75 C 1.203125 -34.863281 1.765625 -39.320312 2.890625 -44.125 C 4.023438 -48.9375 5.765625 -53.398438 8.109375 -57.515625 C 10.453125 -61.628906 13.457031 -65.054688 17.125 -67.796875 C 20.800781 -70.546875 25.179688 -71.921875 30.265625 -71.921875 C 33.410156 -71.921875 36.132812 -71.234375 38.4375 -69.859375 C 40.738281 -68.484375 42.632812 -66.6875 44.125 -64.46875 C 45.625 -62.25 46.753906 -59.765625 47.515625 -57.015625 C 48.285156 -54.273438 48.671875 -51.578125 48.671875 -48.921875 C 48.671875 -48.515625 48.671875 -48.109375 48.671875 -47.703125 C 48.671875 -47.296875 48.628906 -46.894531 48.546875 -46.5 Z M 48.546875 -46.5 "/></g></g><g transform="translate(642.366031, 679.280062)"><g><path d="M 31.84375 4.359375 C 26.113281 4.359375 21.65625 3.609375 18.46875 2.109375 C 15.28125 0.617188 12.894531 -1.492188 11.3125 -4.234375 C 9.738281 -6.984375 8.789062 -10.296875 8.46875 -14.171875 C 8.144531 -18.046875 7.984375 -22.363281 7.984375 -27.125 C 7.984375 -30.914062 8.101562 -34.726562 8.34375 -38.5625 C 8.59375 -42.394531 8.957031 -46.492188 9.4375 -50.859375 C 8.3125 -50.859375 7.425781 -50.835938 6.78125 -50.796875 C 6.132812 -50.753906 5.609375 -50.734375 5.203125 -50.734375 C 2.617188 -50.734375 0.378906 -51.296875 -1.515625 -52.421875 C -3.410156 -53.554688 -4.359375 -55.296875 -4.359375 -57.640625 C -4.359375 -59.085938 -3.8125 -60.375 -2.71875 -61.5 C -1.632812 -62.632812 -0.242188 -63.601562 1.453125 -64.40625 C 3.148438 -65.21875 4.984375 -65.863281 6.953125 -66.34375 C 8.929688 -66.832031 10.8125 -67.15625 12.59375 -67.3125 C 12.59375 -69.570312 12.753906 -72.070312 13.078125 -74.8125 C 13.398438 -77.5625 13.984375 -80.128906 14.828125 -82.515625 C 15.679688 -84.898438 16.832031 -86.898438 18.28125 -88.515625 C 19.738281 -90.128906 21.597656 -90.9375 23.859375 -90.9375 C 25.148438 -90.9375 26.296875 -90.550781 27.296875 -89.78125 C 28.304688 -89.007812 29.132812 -88.039062 29.78125 -86.875 C 30.425781 -85.707031 30.910156 -84.394531 31.234375 -82.9375 C 31.554688 -81.488281 31.71875 -80.078125 31.71875 -78.703125 C 31.71875 -77.085938 31.597656 -75.429688 31.359375 -73.734375 C 31.117188 -72.035156 30.675781 -69.9375 30.03125 -67.4375 C 31.394531 -67.601562 32.316406 -67.703125 32.796875 -67.734375 C 33.285156 -67.773438 33.734375 -67.796875 34.140625 -67.796875 C 35.515625 -67.796875 36.945312 -67.675781 38.4375 -67.4375 C 39.9375 -67.195312 41.3125 -66.789062 42.5625 -66.21875 C 43.8125 -65.65625 44.835938 -64.910156 45.640625 -63.984375 C 46.453125 -63.054688 46.859375 -61.945312 46.859375 -60.65625 C 46.859375 -59.207031 46.269531 -57.914062 45.09375 -56.78125 C 43.925781 -55.65625 42.453125 -54.6875 40.671875 -53.875 C 38.898438 -53.070312 37.003906 -52.445312 34.984375 -52 C 32.972656 -51.5625 31.078125 -51.257812 29.296875 -51.09375 C 28.816406 -47.78125 28.472656 -44.734375 28.265625 -41.953125 C 28.066406 -39.171875 27.847656 -36.363281 27.609375 -33.53125 C 27.441406 -32.164062 27.296875 -30.773438 27.171875 -29.359375 C 27.054688 -27.953125 27 -26.519531 27 -25.0625 C 27 -24.007812 27.039062 -22.773438 27.125 -21.359375 C 27.207031 -19.953125 27.488281 -18.601562 27.96875 -17.3125 C 28.457031 -16.019531 29.222656 -14.910156 30.265625 -13.984375 C 31.316406 -13.054688 32.769531 -12.59375 34.625 -12.59375 C 35.757812 -12.59375 36.929688 -12.691406 38.140625 -12.890625 C 39.347656 -13.097656 40.554688 -13.203125 41.765625 -13.203125 C 43.867188 -13.203125 45.382812 -12.472656 46.3125 -11.015625 C 47.238281 -9.566406 47.703125 -7.710938 47.703125 -5.453125 C 47.703125 -3.753906 47.195312 -2.28125 46.1875 -1.03125 C 45.175781 0.21875 43.90625 1.222656 42.375 1.984375 C 40.84375 2.753906 39.128906 3.34375 37.234375 3.75 C 35.335938 4.15625 33.539062 4.359375 31.84375 4.359375 Z M 31.84375 4.359375 "/></g></g><g transform="translate(688.862858, 679.280062)"><g/></g><g transform="translate(718.04446, 679.280062)"><g><path d="M 59.09375 -36.078125 C 59.09375 -32.523438 58.707031 -28.628906 57.9375 -24.390625 C 57.164062 -20.160156 55.875 -16.226562 54.0625 -12.59375 C 52.25 -8.957031 49.867188 -5.925781 46.921875 -3.5 C 43.972656 -1.082031 40.28125 0.125 35.84375 0.125 C 34.707031 0.125 33.535156 0.046875 32.328125 -0.109375 C 31.117188 -0.273438 29.96875 -0.5625 28.875 -0.96875 C 27.789062 -1.375 26.800781 -1.914062 25.90625 -2.59375 C 25.019531 -3.28125 24.335938 -4.191406 23.859375 -5.328125 L 22.765625 12.109375 C 22.679688 13.960938 22.617188 16.179688 22.578125 18.765625 C 22.535156 21.347656 22.210938 23.8125 21.609375 26.15625 C 21.003906 28.5 19.992188 30.492188 18.578125 32.140625 C 17.171875 33.796875 15.132812 34.625 12.46875 34.625 C 10.9375 34.625 9.644531 33.835938 8.59375 32.265625 C 7.539062 30.691406 6.710938 28.691406 6.109375 26.265625 C 5.503906 23.847656 5.039062 21.144531 4.71875 18.15625 C 4.394531 15.175781 4.191406 12.3125 4.109375 9.5625 C 4.035156 6.820312 4 4.320312 4 2.0625 C 4 -0.195312 4 -1.851562 4 -2.90625 C 4 -8.3125 3.957031 -13.695312 3.875 -19.0625 C 3.789062 -24.4375 3.75 -29.828125 3.75 -35.234375 C 3.75 -36.203125 3.75 -37.710938 3.75 -39.765625 C 3.75 -41.828125 3.828125 -44.066406 3.984375 -46.484375 C 4.148438 -48.910156 4.414062 -51.414062 4.78125 -54 C 5.144531 -56.582031 5.6875 -58.941406 6.40625 -61.078125 C 7.132812 -63.222656 8.0625 -64.957031 9.1875 -66.28125 C 10.320312 -67.613281 11.695312 -68.28125 13.3125 -68.28125 C 14.363281 -68.28125 15.3125 -67.976562 16.15625 -67.375 C 17.007812 -66.769531 17.738281 -66.003906 18.34375 -65.078125 C 18.945312 -64.148438 19.453125 -63.160156 19.859375 -62.109375 C 20.265625 -61.066406 20.585938 -60.097656 20.828125 -59.203125 C 23.328125 -62.023438 26.210938 -64.160156 29.484375 -65.609375 C 32.753906 -67.066406 36.242188 -67.796875 39.953125 -67.796875 C 43.828125 -67.796875 46.992188 -66.707031 49.453125 -64.53125 C 51.921875 -62.351562 53.859375 -59.648438 55.265625 -56.421875 C 56.679688 -53.191406 57.671875 -49.738281 58.234375 -46.0625 C 58.804688 -42.394531 59.09375 -39.066406 59.09375 -36.078125 Z M 41.765625 -37.046875 C 41.765625 -38.253906 41.664062 -39.484375 41.46875 -40.734375 C 41.269531 -41.992188 40.90625 -43.164062 40.375 -44.25 C 39.851562 -45.34375 39.109375 -46.234375 38.140625 -46.921875 C 37.171875 -47.609375 35.957031 -47.953125 34.5 -47.953125 C 32.5625 -47.953125 30.523438 -47.320312 28.390625 -46.0625 C 26.253906 -44.8125 24.660156 -43.378906 23.609375 -41.765625 C 23.203125 -41.117188 22.957031 -40.066406 22.875 -38.609375 C 22.800781 -37.160156 22.765625 -36.078125 22.765625 -35.359375 C 22.765625 -34.785156 22.785156 -34.035156 22.828125 -33.109375 C 22.867188 -32.179688 22.925781 -31.234375 23 -30.265625 C 23.082031 -29.296875 23.179688 -28.367188 23.296875 -27.484375 C 23.421875 -26.597656 23.609375 -25.910156 23.859375 -25.421875 C 24.097656 -24.703125 24.617188 -24.035156 25.421875 -23.421875 C 26.234375 -22.816406 27.125 -22.269531 28.09375 -21.78125 C 29.0625 -21.300781 30.046875 -20.941406 31.046875 -20.703125 C 32.054688 -20.460938 32.925781 -20.34375 33.65625 -20.34375 C 35.351562 -20.34375 36.722656 -20.988281 37.765625 -22.28125 C 38.816406 -23.570312 39.644531 -25.101562 40.25 -26.875 C 40.863281 -28.65625 41.269531 -30.492188 41.46875 -32.390625 C 41.664062 -34.285156 41.765625 -35.835938 41.765625 -37.046875 Z M 41.765625 -37.046875 "/></g></g><g transform="translate(780.887828, 679.280062)"><g><path d="M 26.640625 3.515625 C 22.523438 3.515625 18.929688 2.421875 15.859375 0.234375 C 12.796875 -1.941406 10.210938 -4.722656 8.109375 -8.109375 C 6.015625 -11.503906 4.441406 -15.28125 3.390625 -19.4375 C 2.335938 -23.59375 1.8125 -27.6875 1.8125 -31.71875 C 1.8125 -36 2.335938 -40.421875 3.390625 -44.984375 C 4.441406 -49.546875 6.054688 -53.703125 8.234375 -57.453125 C 10.410156 -61.203125 13.191406 -64.265625 16.578125 -66.640625 C 19.972656 -69.023438 24.015625 -70.21875 28.703125 -70.21875 C 33.210938 -70.21875 37.0625 -68.988281 40.25 -66.53125 C 43.445312 -64.070312 46.015625 -61.003906 47.953125 -57.328125 C 49.890625 -53.660156 51.257812 -49.644531 52.0625 -45.28125 C 52.875 -40.925781 53.15625 -36.8125 52.90625 -32.9375 C 52.664062 -28.65625 52 -24.332031 50.90625 -19.96875 C 49.820312 -15.613281 48.226562 -11.703125 46.125 -8.234375 C 44.03125 -4.765625 41.367188 -1.941406 38.140625 0.234375 C 34.910156 2.421875 31.078125 3.515625 26.640625 3.515625 Z M 27.84375 -51.21875 C 26.632812 -51.21875 25.566406 -50.570312 24.640625 -49.28125 C 23.710938 -47.988281 22.945312 -46.410156 22.34375 -44.546875 C 21.738281 -42.691406 21.273438 -40.734375 20.953125 -38.671875 C 20.628906 -36.617188 20.46875 -34.828125 20.46875 -33.296875 C 20.46875 -31.359375 20.644531 -29.257812 21 -27 C 21.363281 -24.738281 21.867188 -22.660156 22.515625 -20.765625 C 23.160156 -18.867188 23.945312 -17.296875 24.875 -16.046875 C 25.8125 -14.796875 26.882812 -14.171875 28.09375 -14.171875 C 29.382812 -14.171875 30.492188 -14.773438 31.421875 -15.984375 C 32.347656 -17.191406 33.09375 -18.722656 33.65625 -20.578125 C 34.21875 -22.441406 34.617188 -24.484375 34.859375 -26.703125 C 35.109375 -28.921875 35.234375 -31 35.234375 -32.9375 C 35.234375 -34.707031 35.070312 -36.660156 34.75 -38.796875 C 34.425781 -40.941406 33.960938 -42.941406 33.359375 -44.796875 C 32.753906 -46.648438 31.988281 -48.179688 31.0625 -49.390625 C 30.132812 -50.609375 29.0625 -51.21875 27.84375 -51.21875 Z M 27.84375 -51.21875 "/></g></g><g transform="translate(836.344982, 679.280062)"><g><path d="M 39.109375 -66.59375 C 39.109375 -64.25 38.320312 -62.507812 36.75 -61.375 C 35.175781 -60.25 33.421875 -59.179688 31.484375 -58.171875 C 29.546875 -57.171875 27.789062 -55.984375 26.21875 -54.609375 C 24.644531 -53.234375 23.859375 -51.175781 23.859375 -48.4375 C 23.859375 -46.976562 24.195312 -45.722656 24.875 -44.671875 C 25.5625 -43.628906 26.410156 -42.679688 27.421875 -41.828125 C 28.429688 -40.984375 29.539062 -40.113281 30.75 -39.21875 C 31.957031 -38.332031 33.066406 -37.320312 34.078125 -36.1875 C 35.085938 -35.0625 35.9375 -33.691406 36.625 -32.078125 C 37.3125 -30.472656 37.65625 -28.5 37.65625 -26.15625 C 37.65625 -22.757812 36.785156 -19.425781 35.046875 -16.15625 C 33.316406 -12.894531 31.097656 -9.988281 28.390625 -7.4375 C 25.691406 -4.894531 22.644531 -2.859375 19.25 -1.328125 C 15.863281 0.203125 12.515625 0.96875 9.203125 0.96875 C 7.828125 0.96875 6.453125 0.863281 5.078125 0.65625 C 3.710938 0.457031 2.484375 0.078125 1.390625 -0.484375 C 0.304688 -1.046875 -0.597656 -1.832031 -1.328125 -2.84375 C -2.054688 -3.851562 -2.421875 -5.164062 -2.421875 -6.78125 C -2.421875 -9.039062 -1.976562 -10.796875 -1.09375 -12.046875 C -0.207031 -13.296875 0.921875 -14.285156 2.296875 -15.015625 C 3.671875 -15.742188 5.144531 -16.304688 6.71875 -16.703125 C 8.289062 -17.109375 9.765625 -17.613281 11.140625 -18.21875 C 12.515625 -18.820312 13.644531 -19.609375 14.53125 -20.578125 C 15.414062 -21.546875 15.859375 -22.921875 15.859375 -24.703125 C 15.859375 -26.398438 15.191406 -28.15625 13.859375 -29.96875 C 12.523438 -31.78125 11.050781 -33.710938 9.4375 -35.765625 C 7.820312 -37.828125 6.347656 -40.03125 5.015625 -42.375 C 3.691406 -44.71875 3.03125 -47.300781 3.03125 -50.125 C 3.03125 -53.59375 3.734375 -56.800781 5.140625 -59.75 C 6.554688 -62.695312 8.453125 -65.257812 10.828125 -67.4375 C 13.210938 -69.613281 15.9375 -71.328125 19 -72.578125 C 22.070312 -73.835938 25.304688 -74.46875 28.703125 -74.46875 C 29.992188 -74.46875 31.265625 -74.34375 32.515625 -74.09375 C 33.765625 -73.851562 34.875 -73.429688 35.84375 -72.828125 C 36.8125 -72.222656 37.597656 -71.414062 38.203125 -70.40625 C 38.804688 -69.394531 39.109375 -68.125 39.109375 -66.59375 Z M 39.109375 -66.59375 "/></g></g><g transform="translate(876.666449, 679.280062)"><g><path d="M 31.84375 4.359375 C 26.113281 4.359375 21.65625 3.609375 18.46875 2.109375 C 15.28125 0.617188 12.894531 -1.492188 11.3125 -4.234375 C 9.738281 -6.984375 8.789062 -10.296875 8.46875 -14.171875 C 8.144531 -18.046875 7.984375 -22.363281 7.984375 -27.125 C 7.984375 -30.914062 8.101562 -34.726562 8.34375 -38.5625 C 8.59375 -42.394531 8.957031 -46.492188 9.4375 -50.859375 C 8.3125 -50.859375 7.425781 -50.835938 6.78125 -50.796875 C 6.132812 -50.753906 5.609375 -50.734375 5.203125 -50.734375 C 2.617188 -50.734375 0.378906 -51.296875 -1.515625 -52.421875 C -3.410156 -53.554688 -4.359375 -55.296875 -4.359375 -57.640625 C -4.359375 -59.085938 -3.8125 -60.375 -2.71875 -61.5 C -1.632812 -62.632812 -0.242188 -63.601562 1.453125 -64.40625 C 3.148438 -65.21875 4.984375 -65.863281 6.953125 -66.34375 C 8.929688 -66.832031 10.8125 -67.15625 12.59375 -67.3125 C 12.59375 -69.570312 12.753906 -72.070312 13.078125 -74.8125 C 13.398438 -77.5625 13.984375 -80.128906 14.828125 -82.515625 C 15.679688 -84.898438 16.832031 -86.898438 18.28125 -88.515625 C 19.738281 -90.128906 21.597656 -90.9375 23.859375 -90.9375 C 25.148438 -90.9375 26.296875 -90.550781 27.296875 -89.78125 C 28.304688 -89.007812 29.132812 -88.039062 29.78125 -86.875 C 30.425781 -85.707031 30.910156 -84.394531 31.234375 -82.9375 C 31.554688 -81.488281 31.71875 -80.078125 31.71875 -78.703125 C 31.71875 -77.085938 31.597656 -75.429688 31.359375 -73.734375 C 31.117188 -72.035156 30.675781 -69.9375 30.03125 -67.4375 C 31.394531 -67.601562 32.316406 -67.703125 32.796875 -67.734375 C 33.285156 -67.773438 33.734375 -67.796875 34.140625 -67.796875 C 35.515625 -67.796875 36.945312 -67.675781 38.4375 -67.4375 C 39.9375 -67.195312 41.3125 -66.789062 42.5625 -66.21875 C 43.8125 -65.65625 44.835938 -64.910156 45.640625 -63.984375 C 46.453125 -63.054688 46.859375 -61.945312 46.859375 -60.65625 C 46.859375 -59.207031 46.269531 -57.914062 45.09375 -56.78125 C 43.925781 -55.65625 42.453125 -54.6875 40.671875 -53.875 C 38.898438 -53.070312 37.003906 -52.445312 34.984375 -52 C 32.972656 -51.5625 31.078125 -51.257812 29.296875 -51.09375 C 28.816406 -47.78125 28.472656 -44.734375 28.265625 -41.953125 C 28.066406 -39.171875 27.847656 -36.363281 27.609375 -33.53125 C 27.441406 -32.164062 27.296875 -30.773438 27.171875 -29.359375 C 27.054688 -27.953125 27 -26.519531 27 -25.0625 C 27 -24.007812 27.039062 -22.773438 27.125 -21.359375 C 27.207031 -19.953125 27.488281 -18.601562 27.96875 -17.3125 C 28.457031 -16.019531 29.222656 -14.910156 30.265625 -13.984375 C 31.316406 -13.054688 32.769531 -12.59375 34.625 -12.59375 C 35.757812 -12.59375 36.929688 -12.691406 38.140625 -12.890625 C 39.347656 -13.097656 40.554688 -13.203125 41.765625 -13.203125 C 43.867188 -13.203125 45.382812 -12.472656 46.3125 -11.015625 C 47.238281 -9.566406 47.703125 -7.710938 47.703125 -5.453125 C 47.703125 -3.753906 47.195312 -2.28125 46.1875 -1.03125 C 45.175781 0.21875 43.90625 1.222656 42.375 1.984375 C 40.84375 2.753906 39.128906 3.34375 37.234375 3.75 C 35.335938 4.15625 33.539062 4.359375 31.84375 4.359375 Z M 31.84375 4.359375 "/></g></g><g transform="translate(923.163276, 679.280062)"><g><path d="M 56.671875 -34.625 C 56.671875 -30.1875 56.222656 -25.785156 55.328125 -21.421875 C 54.441406 -17.066406 52.945312 -13.171875 50.84375 -9.734375 C 48.75 -6.304688 45.945312 -3.546875 42.4375 -1.453125 C 38.925781 0.640625 34.546875 1.6875 29.296875 1.6875 C 24.128906 1.6875 19.8125 0.660156 16.34375 -1.390625 C 12.875 -3.453125 10.109375 -6.175781 8.046875 -9.5625 C 5.992188 -12.957031 4.539062 -16.789062 3.6875 -21.0625 C 2.84375 -25.34375 2.421875 -29.703125 2.421875 -34.140625 C 2.421875 -38.984375 2.984375 -43.785156 4.109375 -48.546875 C 4.359375 -49.835938 4.820312 -51.632812 5.5 -53.9375 C 6.1875 -56.238281 7.078125 -58.5 8.171875 -60.71875 C 9.265625 -62.9375 10.515625 -64.851562 11.921875 -66.46875 C 13.335938 -68.082031 14.894531 -68.890625 16.59375 -68.890625 C 18.207031 -68.890625 19.5 -68.445312 20.46875 -67.5625 C 21.4375 -66.675781 22.203125 -65.566406 22.765625 -64.234375 C 23.328125 -62.898438 23.6875 -61.484375 23.84375 -59.984375 C 24.007812 -58.492188 24.09375 -57.144531 24.09375 -55.9375 C 24.09375 -54.082031 23.953125 -52.265625 23.671875 -50.484375 C 23.390625 -48.710938 23.085938 -46.9375 22.765625 -45.15625 C 22.441406 -42.738281 22.140625 -40.316406 21.859375 -37.890625 C 21.578125 -35.472656 21.4375 -33.054688 21.4375 -30.640625 C 21.4375 -29.421875 21.492188 -28.066406 21.609375 -26.578125 C 21.734375 -25.085938 22.035156 -23.65625 22.515625 -22.28125 C 23.003906 -20.90625 23.691406 -19.753906 24.578125 -18.828125 C 25.460938 -17.898438 26.710938 -17.4375 28.328125 -17.4375 C 30.429688 -17.4375 32.109375 -18 33.359375 -19.125 C 34.609375 -20.257812 35.535156 -21.671875 36.140625 -23.359375 C 36.742188 -25.054688 37.125 -26.875 37.28125 -28.8125 C 37.445312 -30.75 37.53125 -32.523438 37.53125 -34.140625 C 37.53125 -37.691406 37.285156 -41.179688 36.796875 -44.609375 C 36.316406 -48.046875 35.875 -51.539062 35.46875 -55.09375 C 35.394531 -55.5 35.359375 -56.0625 35.359375 -56.78125 C 35.359375 -58 35.554688 -59.210938 35.953125 -60.421875 C 36.359375 -61.628906 36.925781 -62.71875 37.65625 -63.6875 C 38.382812 -64.65625 39.269531 -65.441406 40.3125 -66.046875 C 41.363281 -66.648438 42.535156 -66.953125 43.828125 -66.953125 C 45.609375 -66.953125 47.179688 -66.328125 48.546875 -65.078125 C 49.921875 -63.828125 51.070312 -62.210938 52 -60.234375 C 52.925781 -58.253906 53.691406 -56.035156 54.296875 -53.578125 C 54.910156 -51.117188 55.394531 -48.695312 55.75 -46.3125 C 56.113281 -43.925781 56.359375 -41.679688 56.484375 -39.578125 C 56.609375 -37.484375 56.671875 -35.832031 56.671875 -34.625 Z M 56.671875 -34.625 "/></g></g><g transform="translate(983.584934, 679.280062)"><g><path d="M 45.640625 -45.28125 C 44.515625 -45.195312 43.546875 -45.296875 42.734375 -45.578125 C 41.929688 -45.867188 41.125 -46.175781 40.3125 -46.5 C 39.59375 -46.820312 38.867188 -47.125 38.140625 -47.40625 C 37.410156 -47.6875 36.601562 -47.785156 35.71875 -47.703125 C 34.101562 -47.617188 32.671875 -47.171875 31.421875 -46.359375 C 30.171875 -45.554688 29.039062 -44.550781 28.03125 -43.34375 C 27.019531 -42.132812 26.148438 -40.78125 25.421875 -39.28125 C 24.703125 -37.789062 24.140625 -36.320312 23.734375 -34.875 C 23.492188 -33.90625 23.3125 -32.429688 23.1875 -30.453125 C 23.0625 -28.472656 23 -26.351562 23 -24.09375 C 22.925781 -21.75 22.890625 -19.523438 22.890625 -17.421875 C 22.890625 -15.328125 22.804688 -13.675781 22.640625 -12.46875 C 22.554688 -11.175781 22.351562 -9.660156 22.03125 -7.921875 C 21.707031 -6.191406 21.203125 -4.554688 20.515625 -3.015625 C 19.835938 -1.484375 18.929688 -0.195312 17.796875 0.84375 C 16.671875 1.894531 15.21875 2.421875 13.4375 2.421875 C 12.0625 2.421875 10.867188 2.015625 9.859375 1.203125 C 8.859375 0.398438 8.015625 -0.664062 7.328125 -2 C 6.640625 -3.332031 6.070312 -4.882812 5.625 -6.65625 C 5.1875 -8.4375 4.84375 -10.253906 4.59375 -12.109375 C 4.351562 -14.046875 4.171875 -15.984375 4.046875 -17.921875 C 3.929688 -19.859375 3.851562 -21.691406 3.8125 -23.421875 C 3.769531 -25.160156 3.769531 -26.753906 3.8125 -28.203125 C 3.851562 -29.660156 3.875 -30.832031 3.875 -31.71875 C 3.789062 -34.539062 3.644531 -37.382812 3.4375 -40.25 C 3.238281 -43.125 3.140625 -45.972656 3.140625 -48.796875 C 3.140625 -50.566406 3.21875 -52.539062 3.375 -54.71875 C 3.539062 -56.90625 3.988281 -58.945312 4.71875 -60.84375 C 5.445312 -62.738281 6.515625 -64.332031 7.921875 -65.625 C 9.335938 -66.914062 11.296875 -67.5625 13.796875 -67.5625 C 15.171875 -67.5625 16.34375 -67.113281 17.3125 -66.21875 C 18.28125 -65.332031 19.066406 -64.242188 19.671875 -62.953125 C 20.273438 -61.671875 20.738281 -60.300781 21.0625 -58.84375 C 21.382812 -57.394531 21.585938 -56.0625 21.671875 -54.84375 C 23.609375 -58 25.785156 -60.5625 28.203125 -62.53125 C 30.628906 -64.507812 33.78125 -65.582031 37.65625 -65.75 C 39.59375 -65.820312 41.507812 -65.632812 43.40625 -65.1875 C 45.300781 -64.75 47.035156 -64.023438 48.609375 -63.015625 C 50.179688 -62.015625 51.472656 -60.707031 52.484375 -59.09375 C 53.492188 -57.476562 54.039062 -55.578125 54.125 -53.390625 C 54.28125 -50.804688 53.507812 -48.828125 51.8125 -47.453125 C 50.125 -46.085938 48.066406 -45.363281 45.640625 -45.28125 Z M 45.640625 -45.28125 "/></g></g><g transform="translate(1035.893864, 679.280062)"><g><path d="M 54.359375 -21.546875 C 54.359375 -18.804688 53.488281 -16.125 51.75 -13.5 C 50.019531 -10.875 47.84375 -8.53125 45.21875 -6.46875 C 42.59375 -4.414062 39.785156 -2.765625 36.796875 -1.515625 C 33.816406 -0.265625 31.078125 0.359375 28.578125 0.359375 C 24.296875 0.359375 20.476562 -0.707031 17.125 -2.84375 C 13.78125 -4.976562 10.976562 -7.703125 8.71875 -11.015625 C 6.457031 -14.328125 4.738281 -17.976562 3.5625 -21.96875 C 2.394531 -25.96875 1.8125 -29.863281 1.8125 -33.65625 C 1.8125 -37.695312 2.375 -42.015625 3.5 -46.609375 C 4.632812 -51.210938 6.351562 -55.453125 8.65625 -59.328125 C 10.957031 -63.203125 13.863281 -66.429688 17.375 -69.015625 C 20.882812 -71.597656 25.0625 -72.890625 29.90625 -72.890625 C 32.644531 -72.890625 35.265625 -72.425781 37.765625 -71.5 C 40.273438 -70.570312 42.457031 -69.257812 44.3125 -67.5625 C 46.164062 -65.863281 47.65625 -63.84375 48.78125 -61.5 C 49.914062 -59.164062 50.484375 -56.546875 50.484375 -53.640625 C 50.484375 -49.847656 49.675781 -46.296875 48.0625 -42.984375 C 46.445312 -39.671875 44.304688 -36.800781 41.640625 -34.375 C 38.984375 -31.957031 35.921875 -30.003906 32.453125 -28.515625 C 28.984375 -27.023438 25.429688 -26.195312 21.796875 -26.03125 C 22.117188 -23.6875 23.066406 -21.988281 24.640625 -20.9375 C 26.210938 -19.894531 28.085938 -19.375 30.265625 -19.375 C 31.878906 -19.375 33.453125 -19.773438 34.984375 -20.578125 C 36.523438 -21.390625 38.019531 -22.300781 39.46875 -23.3125 C 40.925781 -24.320312 42.359375 -25.226562 43.765625 -26.03125 C 45.179688 -26.84375 46.613281 -27.25 48.0625 -27.25 C 49.675781 -27.25 51.128906 -26.722656 52.421875 -25.671875 C 53.710938 -24.617188 54.359375 -23.242188 54.359375 -21.546875 Z M 34.75 -51.21875 C 34.75 -52.269531 34.460938 -53.359375 33.890625 -54.484375 C 33.328125 -55.617188 32.441406 -56.1875 31.234375 -56.1875 C 29.460938 -56.1875 27.96875 -55.71875 26.75 -54.78125 C 25.539062 -53.851562 24.53125 -52.679688 23.71875 -51.265625 C 22.914062 -49.859375 22.289062 -48.347656 21.84375 -46.734375 C 21.40625 -45.117188 21.144531 -43.625 21.0625 -42.25 C 22.195312 -42.5 23.550781 -42.820312 25.125 -43.21875 C 26.695312 -43.625 28.1875 -44.171875 29.59375 -44.859375 C 31.007812 -45.546875 32.222656 -46.410156 33.234375 -47.453125 C 34.242188 -48.503906 34.75 -49.757812 34.75 -51.21875 Z M 34.75 -51.21875 "/></g></g><g transform="translate(1091.472103, 679.280062)"><g><path d="M 26.28125 -50.734375 C 26.28125 -49.441406 26.195312 -47.6875 26.03125 -45.46875 C 25.875 -43.25 25.632812 -40.863281 25.3125 -38.3125 C 24.988281 -35.769531 24.519531 -33.1875 23.90625 -30.5625 C 23.300781 -27.945312 22.59375 -25.566406 21.78125 -23.421875 C 20.976562 -21.285156 20.007812 -19.550781 18.875 -18.21875 C 17.75 -16.882812 16.460938 -16.21875 15.015625 -16.21875 C 13.234375 -16.21875 11.71875 -17.085938 10.46875 -18.828125 C 9.21875 -20.566406 8.164062 -22.785156 7.3125 -25.484375 C 6.46875 -28.191406 5.800781 -31.195312 5.3125 -34.5 C 4.832031 -37.8125 4.472656 -41.0625 4.234375 -44.25 C 3.992188 -47.4375 3.851562 -50.382812 3.8125 -53.09375 C 3.769531 -55.800781 3.75 -57.878906 3.75 -59.328125 C 3.75 -60.785156 3.75 -62.625 3.75 -64.84375 C 3.75 -67.0625 3.847656 -69.421875 4.046875 -71.921875 C 4.253906 -74.421875 4.578125 -76.898438 5.015625 -79.359375 C 5.460938 -81.828125 6.128906 -84.066406 7.015625 -86.078125 C 7.910156 -88.097656 9.082031 -89.734375 10.53125 -90.984375 C 11.988281 -92.242188 13.804688 -92.875 15.984375 -92.875 C 17.921875 -92.875 19.515625 -92.046875 20.765625 -90.390625 C 22.015625 -88.734375 23.019531 -86.59375 23.78125 -83.96875 C 24.550781 -81.34375 25.117188 -78.414062 25.484375 -75.1875 C 25.847656 -71.957031 26.085938 -68.789062 26.203125 -65.6875 C 26.328125 -62.582031 26.367188 -59.695312 26.328125 -57.03125 C 26.296875 -54.363281 26.28125 -52.265625 26.28125 -50.734375 Z M 23.96875 -4.71875 C 23.96875 -3.34375 23.644531 -2.148438 23 -1.140625 C 22.351562 -0.140625 21.503906 0.703125 20.453125 1.390625 C 19.410156 2.078125 18.28125 2.582031 17.0625 2.90625 C 15.851562 3.226562 14.644531 3.390625 13.4375 3.390625 C 11.664062 3.390625 9.972656 2.925781 8.359375 2 C 6.742188 1.070312 5.9375 -0.398438 5.9375 -2.421875 C 5.9375 -3.628906 6.273438 -4.738281 6.953125 -5.75 C 7.640625 -6.757812 8.507812 -7.625 9.5625 -8.34375 C 10.613281 -9.070312 11.765625 -9.640625 13.015625 -10.046875 C 14.265625 -10.453125 15.457031 -10.65625 16.59375 -10.65625 C 18.445312 -10.65625 20.140625 -10.191406 21.671875 -9.265625 C 23.203125 -8.335938 23.96875 -6.820312 23.96875 -4.71875 Z M 23.96875 -4.71875 "/></g></g></g></svg>